<?xml version="1.0" encoding="iso-8859-1"?>
<!-- Generator: Adobe Illustrator 16.0.0, SVG Export Plug-In . SVG Version: 6.00 Build 0)  -->
<!DOCTYPE svg PUBLIC "-//W3C//DTD SVG 1.0//EN" "http://www.w3.org/TR/2001/REC-SVG-20010904/DTD/svg10.dtd">
<svg version="1.0" id="Layer_1" xmlns="http://www.w3.org/2000/svg" xmlns:xlink="http://www.w3.org/1999/xlink" x="0px" y="0px"
	 width="265.259px" height="260.769px" viewBox="0 0 265.259 260.769" style="enable-background:new 0 0 265.259 260.769;"
	 xml:space="preserve">
<path style="fill:#009C9F;" d="M92.633,189.548"/>
<path style="fill:#009C9F;" d="M155.802,74.59"/>
<linearGradient id="SVGID_1_" gradientUnits="userSpaceOnUse" x1="0" y1="96.8369" x2="44.5718" y2="96.8369">
	<stop  offset="0" style="stop-color:#2E8B00"/>
	<stop  offset="1" style="stop-color:#00D065"/>
</linearGradient>
<path style="fill:url(#SVGID_1_);" d="M1.111,84.385c0,0,10.152,4.6,19.986,5.234c2.062,1.427,3.807,2.22,3.807,2.22
	s16.02,8.724,19.668,9.676l-0.158,1.11l-2.063,1.269l-1.903,0.952l-1.11,1.269l-2.062,0.317l-1.586,0.634l-1.269,1.745l-0.952,0.476
	l-1.269-0.159l-1.745-0.793h-2.696h-4.441l-2.062-0.159l-0.476-1.586l-0.159-3.014l0.476-2.062v-2.221l-0.159-1.428l-2.062,1.428
	l-2.379,1.903l-1.745,0.634l-4.283-0.476l-0.317-1.903l-1.903-1.428l-1.428-0.634H5.234l0.317-1.11v-1.903l-1.11-1.269l-1.903-2.062
	l-1.427-2.855L0,85.971v-1.428L1.111,84.385z"/>
<linearGradient id="SVGID_2_" gradientUnits="userSpaceOnUse" x1="1.1108" y1="60.8105" x2="116.9014" y2="60.8105">
	<stop  offset="0" style="stop-color:#2E8B00"/>
	<stop  offset="1" style="stop-color:#00D065"/>
</linearGradient>
<path style="fill:url(#SVGID_2_);" d="M1.111,82.323l3.013,1.903c0,0,13.958,4.283,17.131,4.283c0.634,0,1.586,0.793,1.586,0.793
	l1.904,1.269c0,0,17.765,9.675,19.669,9.834c1.903,0.159,1.903-0.634,1.903-0.634l1.11-0.952l1.11-1.11l1.903-0.317l2.221,0.634
	l2.221-0.952h1.427l1.11-0.476l0.476-1.269l2.062-0.476l2.697-0.159l0.634-1.427l0.952-0.635v-1.427l2.063-1.269l0.158-1.428
	l6.345-0.317l0.793,1.586l1.586,1.428l2.062,2.062l1.904-0.159l1.744,0.317h10.469l9.2-0.159l1.586-1.269l0.159-3.172l1.111-2.538
	l0.317-2.697l-0.952-2.221l-0.635-1.586l13.482-27.282l0.635-2.379l0.634-1.269l-2.538,0.634l-2.063-1.428l-2.062-1.744
	l-5.234-0.476l-1.586-2.379c0,0-3.173-4.367-3.49-4.441c-0.476,0.476-0.248-1.264-0.248-1.264l-0.109-2.206l-0.297-1.785
	l-1.169-0.139h-1.943l-2.578,0.04l-0.674,0.179l-1.071,1.467l-1.586,2.102l-0.734,1.169c0,0-0.317,1.547-0.337,1.626
	c-0.02,0.08-0.456,0.615-0.456,0.615l-0.992,0.417l-1.705-0.02l-1.229-0.912l-0.773-0.912l-1.051,0.198c0,0-0.892,0.575-0.952,0.615
	s-0.654,0.952-0.654,0.952l-0.079,1.586l-0.139,2.419l-0.932,0.179l-1.051,0.02c0,0-1.031-0.575-1.15-0.634
	c-0.119-0.06-0.714-0.674-0.714-0.674s-0.912-0.813-1.011-0.912c-0.099-0.099-0.773-0.972-0.773-0.972s-0.833-0.813-0.873-0.892
	s-0.456-0.773-0.456-0.773v-0.595l0.04-1.407l-0.119-2.756c0,0-0.199-1.071-0.218-1.13c-0.02-0.059-0.337-1.864-0.337-1.923
	c0-0.059-0.04-1.804-0.04-1.804s-0.1-1.468-0.179-1.626c-0.079-0.159-0.654-1.09-0.753-1.229c-0.099-0.139-0.734-1.309-0.734-1.309
	l-0.714-1.765c0,0-0.456-1.269-0.634-1.527c-0.179-0.258-0.654-1.249-0.694-1.309c-0.04-0.059-0.238-0.496-0.238-0.496l-1.844-0.02
	l-0.278-0.417l-0.575,0.179l-0.575,0.535l-1.448,0.634l-0.297,1.249l-0.991,1.091l-1.031,1.11l-1.407,0.198l-1.13,0.417
	l-0.912,0.714l-1.071,0.813l-1.448,1.547l-1.229,0.297l-1.15,0.258l-0.714-0.516l-0.06-0.713h-0.912l-0.694,0.138l-0.317,0.833
	l-1.348-0.02l-1.666-0.02l-0.535-0.377c0,0-0.417-0.555-0.476-0.615s-0.853-0.714-0.853-0.714l-0.674-0.516L43.343,27.5l-0.08-3.767
	l-0.734-1.15l-0.436-0.654l-0.417-0.417l-0.932,0.714l-0.813,0.555l-0.456,0.853l-1.15,0.694l-0.972-1.229l-0.297-0.635
	l-0.575,0.853l-0.575,0.773l-3.093,0.02l-2.122-0.119l-3.013-0.08c0,0-0.635,0.159-0.694,0.178c-0.06,0.02-0.873,0.456-0.873,0.456
	s-0.277,0.615-0.257,0.674s0.159,1.289,0.159,1.289l0.099,0.912c0,0,0.198,0.337,0.476,0.357s1.189,0.02,1.189,0.02
	s1.131,0.06,1.229,0.06c0.099,0,0.516,0.337,0.516,0.337s0.416,0.337,0.456,0.417c0.04,0.08,0.476,0.793,0.476,0.793l0.179,0.893
	c0,0,0,0.833,0,0.892s-0.198,0.793-0.198,0.793h-0.694l-1.229,0.079l-0.317-0.317l-1.051-0.08l-0.932,0.377l-1.229,0.06l0.02,1.11
	l-0.04,3.45l0.595,0.575c0,0,0.713,0.396,0.793,0.476c0.079,0.08,0.555,0.417,0.674,0.516c0.119,0.099,0.595,0.278,0.595,0.278
	l0.099,1.685L27.6,41.003l0.852,1.14l0.387,1.101l-0.357,4.342v1.993c0,0-0.505,1.546-0.505,1.814s-0.684,1.933-0.684,1.933
	l-0.03,1.993c0,0-0.387,0.595-0.417,0.803c-0.03,0.208-0.089,2.677-0.089,2.677s-0.446,1.189-0.476,1.368
	c-0.03,0.178,0,1.725,0,1.725s-0.654,1.993-0.744,2.142c-0.089,0.148-0.654,1.07-0.773,1.1c-0.119,0.03-1.249-0.03-1.397-0.03
	c-0.149,0-1.309-0.416-1.398-0.505s-0.625-0.446-0.625-0.446h-1.338l-1.011,0.387l-0.417,0.744l-1.576,0.625l-2.23,0.208
	l-2.022,0.06l-1.189,0.506l-1.368,0.803L9.24,68.196c0,0-1.487,1.011-1.487,1.101c0,0.089-1.309,1.695-1.427,1.844
	c-0.119,0.149-0.506,1.487-0.506,1.487l-0.208,0.952l-0.654,0.922c0,0-0.536,0.803-0.565,0.892c-0.03,0.089,0.178,1.368,0.178,1.368
	l0.208,0.862L4.184,79.2l-1.1,1.011c0,0-1.22,0.654-1.22,0.773S1.111,82.323,1.111,82.323z"/>
<linearGradient id="SVGID_3_" gradientUnits="userSpaceOnUse" x1="61.1079" y1="21.9487" x2="98.5811" y2="21.9487">
	<stop  offset="0" style="stop-color:#2E8B00"/>
	<stop  offset="1" style="stop-color:#00D065"/>
</linearGradient>
<path style="fill:url(#SVGID_3_);" d="M61.286,6.483c0.238,0,2.498,0,2.498,0l1.071,1.13l1.071,0.833l2.26,0.238l1.546,0.178
	l0.595,1.189l1.309,0.119h1.487l0.595-0.892l0.179-1.309l1.07-0.595l1.487-0.417h2.32l1.011-0.297l1.427-1.011l1.368-0.714
	l1.13-0.535l1.666-0.179l1.189-1.427l1.249-1.606L87.994,0l2.617,0.119l0.595,1.189L90.611,2.32l-0.476,0.952l0.06,1.189
	l1.189,0.179l1.249,0.535l0.833,1.368l0.476,1.071l-0.297,1.071l-0.892,0.892l-0.238,1.13l-0.595,1.963l0.059,0.952l-0.356,0.773
	v2.26l0.059,1.19l0.654,0.892l0.595,1.189l0.059,1.844l0.893,0.535l1.427,1.249l0.773,1.071l1.844,1.189l0.536,0.714l0.119,3.509
	v1.963l-0.833,0.357h-2.617l-2.558-0.059c0,0-0.536,0.595-0.773,0.654c-0.238,0.059-1.546,1.606-1.546,1.606l-0.595,1.249v0.714
	l-0.595,0.476l-0.476,0.595l-0.595,0.833l-0.119,1.071l-0.357,0.535l-0.892,0.178l-0.536-0.535l-0.535-0.714l-1.249-0.773
	l-0.952-0.357l-1.071,0.238l-0.833,0.773l-0.833,0.595l-0.892,1.13l-0.179,2.974l-0.416,0.357l-0.893-0.595l-1.368-1.666
	l-0.833-0.952l-0.476-0.476l0.713-1.011v-1.13l-0.238-0.654l-0.535-0.892l-0.179-1.13l-0.178-1.487l-0.179-1.25l-0.119-2.022v-2.201
	l-0.595-1.07l-0.714-0.833l-0.595-1.011l-0.654-1.368l-0.476-1.189l-0.654-1.487l-0.238-0.654l-0.952-0.833h-0.536l0.06-2.26
	c0,0-0.952,0-1.13-0.06c-0.178-0.06-1.606-0.06-1.606-0.06l-0.773,0.06l-1.249-0.238L64.32,17.19h-0.536
	c0,0-0.178-4.818-0.178-4.997c0-0.179,0.714-1.011,0.714-1.011l0.417-0.654V8.744l-1.428-0.952l-0.952-0.297l-0.892-0.297
	l-0.357-0.476L61.286,6.483z"/>
<linearGradient id="SVGID_4_" gradientUnits="userSpaceOnUse" x1="100.2466" y1="59.0356" x2="183.9966" y2="59.0356">
	<stop  offset="0" style="stop-color:#00D065"/>
	<stop  offset="1" style="stop-color:#2E8B00"/>
</linearGradient>
<path style="fill:url(#SVGID_4_);" d="M100.306,27.421l-0.06,4.521l0.119,1.903c0,0,0.357,2.974,0.357,3.271
	s0.357,1.546,0.357,1.546l1.07,0.773l0.595,0.714l0.297,1.368l0.773,1.011l1.011,1.19l0.952,1.011l1.19,0.119l1.13,0.119
	l0.417,0.178l0.952-0.357l0.833,0.06l0.892,0.595l1.011,1.19l1.249,0.476l1.309,0.773l1.249,0.06l0.654-0.595l1.011-0.179
	l1.13,0.595l-0.119,0.952l-0.119,1.011l-0.595,0.238l-0.595,1.427l-0.357,1.368l-0.892,1.011l-1.309,3.331l-11.123,22.484
	l0.06,0.893l0.833,1.011l0.119,0.952c0,0,0.773,0.713,0.713,0.892c-0.059,0.178,0,1.546,0,1.546l0.714,0.773l0.536,0.773
	l0.535,1.547l0.773,0.892l0.178,1.606l0.06,2.379l1.368,1.011l1.606,1.309l1.071,1.13l1.309,1.13l0.892,0.238l2.498,0.179
	l3.331,0.356l0.892,0.357l8.447,0.357l7.911,0.06l5.234,0.417h5.294l7.197,0.297l2.142,0.06l0.773-1.963l1.784-2.915
	c0,0,1.309-1.309,1.487-1.428s1.07-1.189,1.07-1.189l0.654-1.785l0.179-1.844l-0.238-1.249l-0.654-0.714l0.179-1.844l0.714-1.011
	l0.297-1.368l0.357-1.309c0,0,0.476-0.298,0.773-0.476c0.297-0.178,1.844-1.487,1.844-1.487l1.189-0.713l0.595-0.893l0.952-1.725
	l0.06-1.606l-0.06-1.547l-0.654-0.119l-1.189-0.536l-0.477-1.189l1.487-1.785l3.807-3.271l2.022-0.892l1.487-1.903l2.974-4.759
	l2.082-2.795l0.119-1.963l0.476-1.19l0.773-1.368l0.833-1.963l0.297-2.974l0.595-0.773v-1.903l-1.07-0.654h-1.844l-0.535-0.952
	c0,0-1.845-0.238-2.142-0.357c-0.298-0.119-1.487-0.238-1.487-0.238l-1.725-0.179l-1.547-0.297l-1.011,0.119l-0.714,0.714
	l-3.688,3.985l-2.081,2.558l-1.606,0.892l-1.725,0.06l-0.952-0.595l-0.833,0.06l-0.476,0.714l-0.356,0.714l-1.071-0.417
	l-1.011-0.833l-2.855-0.536c0,0-0.892-0.416-1.07-0.535s-0.952-1.189-0.952-1.189l-0.892-1.963l-0.477-0.417h-1.368l-1.844,1.13
	l-1.725,0.833l-2.736,0.535l-0.714-0.714l0.357-1.309l1.546-0.297l-0.119-0.713l-1.784-0.238c0,0-0.951-1.011-1.189-1.13
	c-0.238-0.119-1.13-1.547-1.13-1.547l-0.238-1.487l-0.893-1.13l-1.844-2.558c0,0-0.297-1.546-0.595-2.022
	c-0.298-0.476-0.476-1.427-0.476-1.784s-0.773-1.428-1.131-1.725c-0.356-0.297-0.713-1.725-0.951-2.082
	c-0.238-0.356-1.189-1.189-1.189-1.189l-1.844-1.071l-1.903-1.368c0,0-1.427-0.297-1.666-0.476
	c-0.238-0.179-1.606-0.714-1.725-0.952c-0.119-0.238-0.357-1.785-0.357-1.785l-0.179-1.666l-0.714-0.892c0,0-1.309,0-1.487,0
	c-0.179,0-1.546,0.417-1.546,0.417l-0.714,0.535h-1.547l-0.833-0.178l-0.178,0.773l0.059,1.309v1.19l-0.178,0.535h-1.606h-1.011
	l-2.796-0.238l-1.427,0.119c0,0-1.606-0.119-1.903-0.059c-0.298,0.059-2.022,1.189-2.022,1.189l-1.547,0.595l-1.606,0.773
	l-2.617,0.892l-1.249,0.892L100.306,27.421z"/>
<linearGradient id="SVGID_5_" gradientUnits="userSpaceOnUse" x1="127.5488" y1="24.6255" x2="158.8364" y2="24.6255">
	<stop  offset="0" style="stop-color:#00D065"/>
	<stop  offset="1" style="stop-color:#2E8B00"/>
</linearGradient>
<path style="fill:url(#SVGID_5_);" d="M128.263,20.105l1.784,0.595l1.19,0.238l1.07-0.178l0.476-0.536l1.487-0.06h1.25l1.07,0.536
	l1.13,0.119l1.547-0.059l1.546-1.011c0,0,0.654-1.011,0.833-1.309s1.309-2.974,1.309-2.974l1.665-2.855l1.547-2.379l1.606-1.963
	l1.249-1.071l1.07,0.833l0.773,0.952c0,0,0.119,1.249,0.119,1.487s0.06,3.034,0.06,3.034l0.297,0.892l0.654,1.011
	c0,0,0.476,0.535,0.476,0.833c0,0.298,0.238,1.725,0.179,1.904c-0.06,0.178,0.417,2.141,0.417,2.141l0.535,1.071l1.13,1.189
	l1.249,0.952l1.428,0.238l0.714,0.713l0.714,1.19l-0.179,1.427c0,0-0.595,0.238-0.773,0.476s-1.546,1.606-2.2,2.201
	c-0.654,0.595-1.785,2.26-1.785,2.26l-1.665,1.368c0,0-1.189,0.833-1.666,1.011c-0.476,0.179-1.189,0.892-1.189,1.071
	c0,0.178-0.773,1.963-0.773,1.963l-0.892,1.249l-1.071,1.368l-0.416,1.666c0,0-0.298,0.357-0.654,0.357s-1.309,0-1.309,0
	s-0.476-0.773-0.654-0.952c-0.179-0.179-0.773-1.25-0.952-1.785c-0.178-0.535-1.07-1.963-1.07-1.963s-0.595-0.952-0.893-1.368
	c-0.297-0.416-0.892-1.606-1.189-1.903c-0.297-0.297-0.832-1.011-0.832-1.011s-0.119-1.309-0.179-1.606s-0.595-2.082-1.011-2.439
	c-0.417-0.356-1.131-2.319-1.309-2.498c-0.18-0.178-0.536-1.13-1.071-1.309c-0.535-0.178-1.309-0.476-1.785-0.773
	c-0.476-0.297-1.487-0.654-1.784-0.713c-0.297-0.06-0.892-0.773-1.546-0.893c-0.654-0.119-1.011-0.416-1.309-0.654
	c-0.298-0.238-1.13-1.07-1.13-1.487S128.263,20.105,128.263,20.105z"/>
<linearGradient id="SVGID_6_" gradientUnits="userSpaceOnUse" x1="170.7925" y1="73.7275" x2="212.8452" y2="73.7275">
	<stop  offset="0" style="stop-color:#FFAB00"/>
	<stop  offset="1" style="stop-color:#D07800"/>
</linearGradient>
<path style="fill:url(#SVGID_6_);" d="M185.722,44.017l1.368,0.119l1.189,1.011l1.011,0.119l1.606,0.06l1.309,0.535l0.833,1.13
	l1.665,1.249c0,0,0.833,1.13,0.833,1.309c0,0.178,0.237,1.011,0.237,1.249s0,1.249-0.178,1.309c-0.179,0.06-1.309,1.189-1.309,1.189
	l-0.298,1.13l0.119,1.428l0.833,0.714l1.07-0.298l0.535-1.189l1.309-0.714h1.071l0.535-0.714c0,0,0.535-0.654,0.951-0.654
	c0.417,0,2.261-0.059,2.261-0.059l0.951-0.476l0.773-0.357l1.487,0.297l1.249,0.595l1.487,0.952l1.13,0.536l1.963,0.238l1.13,0.297
	l-0.118,1.13l-0.833,0.892l-1.309,0.714l-0.535,0.357l-1.903,0.417l-0.833,1.665l-0.952,1.666l-0.714,1.25
	c0,0-0.118,2.141-0.118,3.212c0,1.07,0.535,2.022,0.535,2.438c0,0.417,0.416,1.666,0,2.142c-0.417,0.476-0.773,1.963-1.189,2.32
	c-0.417,0.357-0.238,1.963-0.238,1.963l0.119,0.952l1.13,1.309l-0.238,1.725l-0.714,0.952l-1.546,0.119c0,0-0.952-0.416-1.189-0.416
	c-0.238,0-1.487,0.059-1.487,0.059l-1.368,0.119l-0.893,0.476l-1.309,1.13l-1.13,1.189l-1.547,1.487l-1.486,0.595l-2.617,0.714
	l-1.666,1.428l-0.773,1.784l-0.178,1.19c0,0-0.357,1.487-0.417,1.725c-0.06,0.238-0.951,1.547-1.07,1.725s-0.714,2.082-0.714,2.26
	c0,0.179,0.119,2.142,0.119,2.142l0.416,0.952c0,0,0.417,0.952,0.238,1.13c-0.179,0.179-0.119,2.558-0.119,2.558l-0.714,0.952
	c0,0-1.011-0.356-1.249-0.416s-1.07-0.595-1.07-0.595s-0.536-1.547-0.595-1.904c-0.06-0.357-0.119-1.725-0.357-2.022
	c-0.238-0.298-0.773-0.654-1.07-1.071c-0.298-0.417-1.131-1.368-1.131-1.546c0-0.179,0.119-1.368,0.119-1.547
	c0-0.178,0.714-1.666,0.714-1.666s1.309-0.535,1.547-0.654c0.237-0.119,0.595-1.784,0.595-1.784v-1.546c0,0-0.179-0.238-0.595-0.714
	c-0.417-0.476-3.093-0.238-3.093-0.238l-1.428-0.892l-1.487-1.903c0,0-0.773-1.189-0.714-1.428c0.06-0.238,0.595-2.498,0.595-2.498
	l0.298-5.651l-0.179-1.903l-0.595-1.249c0,0-2.736-1.785-2.975-1.785c-0.237,0-1.665-0.357-1.665-0.357l-0.356-0.773l1.784-2.082
	l2.142-1.071l1.367-1.189l1.428-2.26l1.726-2.796l1.427-2.022l1.25-1.963l0.297-1.189l0.357-1.189l0.237-1.071
	c0,0,0.298-0.773,0.417-0.952c0.118-0.179,0.832-1.487,0.832-1.487s0.417-1.784,0.417-1.963c0-0.178,0.297-1.487,0.297-1.666
	c0-0.178,0.595-2.082,0.595-2.082L185.722,44.017z"/>
<linearGradient id="SVGID_7_" gradientUnits="userSpaceOnUse" x1="47.4268" y1="107.543" x2="91.7607" y2="107.543">
	<stop  offset="0" style="stop-color:#2E8B00"/>
	<stop  offset="1" style="stop-color:#00D065"/>
</linearGradient>
<path style="fill:url(#SVGID_7_);" d="M86.328,125.506c0,0-2.26-0.416-2.617-0.416s-2.439,0.06-2.855,0
	c-0.416-0.059-2.022-0.178-2.022-0.178l-1.428-0.952l-0.654-1.13l-0.892-0.477l-2.201-0.356l-1.427-0.298l-0.833-0.773l-0.773-0.951
	l-0.476-0.893l-0.654-0.416l-1.13,0.477h-1.011l-0.654-0.596l-0.893-0.535l-1.011-0.06l-2.082,0.238l-1.428-0.654l-1.189-1.368
	l-1.666-1.487l-0.952-0.952l-0.893-1.249l-0.654-1.963l0.119-2.677l-0.357-1.249l-0.297-1.546l0.773-0.714l0.059-3.093l-0.535-1.13
	h-1.368c0,0-2.379,0.059-2.736,0.059s-2.439,0.536-2.439,0.536l-1.428,0.417l-0.297-0.417l0.476-0.654l0.714-0.773
	c0,0,0.952-0.178,1.13-0.178c0.179,0,1.487,0,1.487,0l1.844-0.06l1.903-0.357h2.201l0.892-0.595l0.833-1.13l0.714-0.773h3.093
	c0,0,0.892-0.06,1.011-0.357c0.119-0.297,0.238-1.368,0.238-1.368l1.071-0.654l0.238-1.368l0.535-0.714l1.011-0.06l0.773-1.427
	l0.773-0.654l1.13,0.06h1.844l1.13,0.892l1.725,1.13l1.13,1.25l1.13,1.189l0.892,0.595l0.833,0.119l0.713-0.179h0.893l0.555,1.567
	l-0.159,0.872l0.238,1.189l0.158,1.11l-0.08,1.983l-0.396,1.427l0.238,1.983l0.158,1.031v1.031l-0.079,1.507l0.317,0.396
	l0.159,0.793l2.142-0.159l2.855,0.08h2.776l0.317,0.952l1.506,0.238l0.873,0.396l-0.159,0.714l-0.873,0.952l-0.079,1.111
	l0.555,1.506l0.872,1.507l0.08,2.935l-0.714,0.792l-1.427,2.063L86.328,125.506z"/>
<linearGradient id="SVGID_8_" gradientUnits="userSpaceOnUse" x1="81.4507" y1="120.3916" x2="156.8735" y2="120.3916">
	<stop  offset="0" style="stop-color:#D0B700"/>
	<stop  offset="1" style="stop-color:#FFFF2E"/>
</linearGradient>
<path style="fill:url(#SVGID_8_);" d="M82.006,94.537l20.382,0.317l0.555-1.348l0.714-1.983l0.158-1.982v-1.666l0.317-1.269
	l0.317-1.031l0.555,0.08l0.317,0.396l0.158,0.952l0.714,1.349l0.635,2.141l0.396,3.331l0.952,0.952l5.314,4.362l2.141,0.317
	l8.645,0.317l18.876,0.792l13.72,0.952l-0.079,0.714l-0.555,1.824l-1.903,5.313c0,0-0.238-0.159-0.159,2.3
	c0.079,2.459,0.079,7.614,0.079,7.614l0.476,2.062c0,0,0.08,2.3-0.872,3.569c-0.951,1.269-1.427,3.648-1.427,3.648l-0.714,4.44
	l-0.794,1.27l-1.666,0.872l-1.348,1.27l-1.11,1.586l-0.476,1.427l-0.952,0.556l-1.665,1.11l-1.349,1.189l-1.587,2.617l-1.428,2.063
	l-1.188,1.586l-1.031,1.19l-0.159,1.109l-0.079,1.587l0.555,0.872l-0.078,0.555v1.349h-2.539l-0.237-0.872l0.237-1.587l-0.237-0.872
	l-0.634-1.27l-1.19-0.079l-1.269,0.873l-0.714,0.634c0,0-1.11,0-1.586,0s-1.586-0.476-1.586-0.476l-0.952,0.159l-2.935,0.158
	l-1.904-0.793c0,0-0.317-0.317-1.348-1.031c-1.031-0.714-1.824-0.635-2.142-0.635s-1.982-0.158-2.775,0.159
	c-0.793,0.316-0.396,0.396-1.19,0.396c-0.793,0-1.745,0.634-1.983,0.793s-1.031,1.428-1.031,1.428l-0.476,0.873l-1.428-0.08h-0.555
	l-0.714-0.714l-1.666-1.031l-1.349-0.316l-1.506-1.032l-0.555-0.792l-0.396-2.696v-1.032l0.634-0.476l0.238-1.03v-0.873
	l-12.214-0.079l-0.238-2.3l-0.476-2.3l-0.396-0.556l-0.714-0.555l-0.396-1.031h1.348l0.238-1.665l-0.317-2.38l-0.634-0.951
	l-0.634-4.203l-0.793-0.635l0.952-0.873l3.569-5.234l0.079-4.917l-0.713-0.952l-0.397-1.349l0.238-1.031
	c0,0,0.476-1.507,0.238-1.824c-0.238-0.317-0.476-0.714-0.713-0.952c-0.238-0.238-2.062-0.714-2.062-0.714s-1.903-0.714-2.142-0.714
	c-0.238,0-5.393,0.08-5.393,0.08l0.158-3.172l-0.713-1.348l0.396-1.666L82.006,94.537z"/>
<linearGradient id="SVGID_9_" gradientUnits="userSpaceOnUse" x1="104.6001" y1="173.0918" x2="151.2427" y2="173.0918">
	<stop  offset="0" style="stop-color:#FFFF2E"/>
	<stop  offset="1" style="stop-color:#D0B700"/>
</linearGradient>
<path style="fill:url(#SVGID_9_);" d="M108.733,154.098c0.317,0.08,1.507,0.238,1.507,0.238l0.793-0.08l1.031-1.031l1.031-0.792
	l1.031-0.794c0,0,1.745-0.634,1.983-0.634s1.586-0.238,1.903-0.238s0.952,0.317,0.952,0.317s1.586,1.03,1.824,1.11
	c0.238,0.08,1.189,0.396,1.665,0.714c0.476,0.317,1.19,0.237,1.666,0.237c0.476,0,1.824,0,1.824,0s1.507-0.158,1.745-0.158
	c0.238,0,1.745-0.079,1.745-0.079h1.507l1.348-0.556l0.397-0.317l0.634-0.237l-0.317,1.189l-0.396,0.951l-0.634,0.714l0.476,1.507
	c0,0,1.348,0,1.903,0s1.744,0,2.221,0.238c0.476,0.237,0.158,0.635,0.316,0.951c0.158,0.317,1.587,0.714,1.587,0.714
	s-0.397,2.222,0,2.538c0.396,0.317,1.269,0.159,1.665,0.159c0.397,0,1.666,0.079,1.982,0.316c0.317,0.238,1.428,0.714,1.824,1.031
	c0.397,0.316,3.015,1.665,3.015,1.665l2.458,0.794l1.824,0.555v4.68l-0.556,0.396l-1.269,1.032l-1.269,1.665l-1.665,2.3
	l-1.111,1.745l-0.158,1.428c0,0-0.793,0.952-0.872,1.189c-0.079,0.238-0.08,1.269-0.08,1.269l-3.172,2.459l-1.982,1.824l-1.19,1.189
	l-3.172,1.665l-1.031,1.19l-0.873,1.11l-0.238,1.109l-1.428,1.11l-0.159,1.825l-0.634,0.792l-0.873-0.158l-0.634-0.714l-1.428-0.079
	l-1.11,0.555l-0.952,0.556l-1.904,0.158l-0.555-0.714l-0.317-1.903l-0.159-1.428l-0.634-1.03l-0.555-0.477v-1.744l-0.317-1.903
	l-0.714-1.428l-0.872-0.872l-1.507-0.477l-2.221-0.476l-3.41,0.079h-3.014l-0.555-0.158l-2.379-0.238v-1.745l-0.238-2.934v-2.142
	c0,0-0.396-1.031-0.396-1.269c0-0.238-0.635-1.587-0.635-1.983c0-0.397-0.476-1.109-0.396-1.428c0.08-0.317,0.476-1.109,0.476-1.109
	l0.714-1.428l-0.952-1.189l0.159-1.19l1.11-1.27c0,0,1.19-1.585,1.269-1.823c0.079-0.237-0.317-1.824-0.317-1.824l0.159-2.063
	l1.11-1.269c0,0,0-1.269-0.079-1.586c-0.079-0.318-0.952-1.428-0.952-1.428l-0.397-1.824
	C106.909,153.146,108.416,154.018,108.733,154.098z"/>
<linearGradient id="SVGID_10_" gradientUnits="userSpaceOnUse" x1="138.3149" y1="142.876" x2="185.3452" y2="142.876">
	<stop  offset="0" style="stop-color:#FFFF2E"/>
	<stop  offset="1" style="stop-color:#D0B700"/>
</linearGradient>
<path style="fill:url(#SVGID_10_);" d="M156.556,121.025l1.428,0.873l1.348,1.031l1.349,0.237l1.349,1.269l1.665,0.477l0.317-2.142
	l1.03-0.635l2.38-0.079l0.237,1.428l0.318,1.031l0.951,0.158l1.666-0.158l1.348,0.158l1.11,0.635l0.555,0.316l1.746,0.08v-0.873
	l1.665-0.396l1.189-0.713l1.666-0.396l1.665-0.477l1.428-0.317l0.951,0.079l0.079,2.459l-0.555,0.317l0.158,4.204l0.556,0.713
	l0.714,0.952l0.476,0.317v2.617l-0.158,0.476l-0.714-0.079l-0.873-0.714l-0.952-0.397l-1.03,0.08l-0.317,0.952v0.793l-1.427,0.316
	l-0.952,0.159v1.03v2.222l0.317,0.872v0.476l0.158,0.951l-1.031,0.08l-1.404-0.679l-0.938-0.688l-0.125-1.25l-5.813,0.125
	l-0.25,1.375l-1.271,2.122l2.227,1.166l3.773,0.084l1.104,0.838l-0.079,1.269l0.317,1.03l0.476,0.556l0.635,0.952l0.079,0.714
	l-0.952,0.793l-0.872,0.951l-0.317,0.873l0.159,0.951l0.714,0.317l0.316,0.555v1.428v0.714l-0.951,0.714l-1.189,0.635l-0.873,0.951
	l-0.238,0.635l-0.871-0.476l-1.508-0.318h-1.823l-2.063-0.078c0,0-1.031,0.237-1.269,0.237c-0.238,0-1.428,0.397-1.428,0.397
	l-0.952,0.792l-1.903-0.158l-2.538,0.396c0,0-1.11,0.238-1.349,0.238c-0.237,0-1.348,1.11-1.348,1.11l-1.189,1.428l-0.873,0.951
	l-1.427,1.666l-1.507-1.111l-1.666-0.872c0,0-0.951-0.555-1.348-0.555c-0.397,0-1.982-0.952-2.221-0.952s-1.349-0.873-1.587-0.951
	c-0.237-0.079-0.635-0.635-1.349-0.873c-0.713-0.238-1.506-0.555-1.506-0.555l-0.714-0.793l-0.159-0.873l-1.189-0.714l-0.317-1.427
	v-1.27l-0.237-1.11l-0.238-2.22l1.03-2.301l1.19-0.635l1.189-1.03l0.556-1.666l2.3-2.696l1.348-0.476l1.507-0.635l0.238-0.793
	l0.635-1.745l1.189-1.666l1.03-0.476l1.428-1.109l0.477-1.349l0.713-3.093l0.873-1.666l0.397-1.666c0,0,0-1.03,0.316-1.665
	c0.317-0.635,0.396-2.142,0.714-2.3c0.316-0.158,0.635-1.666,0.635-1.666L156.556,121.025z"/>
<linearGradient id="SVGID_11_" gradientUnits="userSpaceOnUse" x1="129.4321" y1="200.2939" x2="170.6733" y2="200.2939">
	<stop  offset="0" style="stop-color:#001FD0"/>
	<stop  offset="1" style="stop-color:#45FFF3"/>
</linearGradient>
<polygon style="fill:url(#SVGID_11_);" points="131.098,196.131 131.098,199.145 130.939,201.524 130.939,204.142 129.908,205.331 
	129.432,205.647 129.987,205.965 130.701,205.965 131.256,205.489 131.732,205.727 132.684,207.234 133.239,208.344 
	133.557,209.852 135.063,210.565 136.887,210.882 138.632,211.041 140.536,211.12 142.439,211.358 143.153,211.913 144.818,212.389 
	147.356,212.944 149.338,213.023 149.893,212.469 149.973,211.596 150.45,210.565 152.353,210.485 153.383,210.406 154.256,209.455 
	154.89,208.899 156.555,208.899 158.777,208.899 160.521,208.899 160.918,209.771 161.71,210.169 162.503,210.09 163.536,209.296 
	164.566,209.058 165.676,209.058 166.945,209.058 167.738,209.533 168.293,209.533 168.77,208.662 169.086,207.551 169.879,206.759 
	170.118,206.045 170.673,205.647 170.593,204.458 169.879,203.903 168.849,203.903 167.897,203.823 167.5,203.507 167.58,202.316 
	167.58,201.365 163.138,201.365 162.742,199.621 162.583,197.875 161.87,196.686 160.838,195.813 160.759,194.782 160.521,192.562 
	160.362,190.817 159.332,189.786 157.983,189.628 153.067,189.548 151.876,188.755 151.083,188.279 150.131,188.041 
	149.338,187.883 147.119,187.725 144.581,187.565 143.708,187.565 141.963,187.565 140.615,187.645 139.108,187.645 
	138.315,187.645 136.966,188.279 135.618,189.39 134.27,190.658 133.794,191.77 132.208,193.514 131.653,194.624 "/>
<linearGradient id="SVGID_12_" gradientUnits="userSpaceOnUse" x1="140.2974" y1="186.0186" x2="196.2104" y2="186.0186">
	<stop  offset="0" style="stop-color:#910000"/>
	<stop  offset="1" style="stop-color:#FF5E00"/>
</linearGradient>
<path style="fill:url(#SVGID_12_);" d="M140.297,185.9l2.301,0.158l2.379,0.158h1.903l1.824,0.159l1.428,0.316l1.507,0.952
	l1.11,0.317h2.221h1.744h2.063l1.11,0.238l0.476,0.714l0.714,0.714l0.634,0.634l0.318,0.873v1.269v0.951l0.079,1.032l0.316,0.792
	l0.397,0.159l0.237,0.793l0.556,0.714l0.158,0.872l-0.079,1.27l0.079,0.713l1.666,0.079h2.22l0.714,0.159l0.397,0.793l0.079,1.11
	l0.237,0.476l1.11,0.079l1.111,0.397l0.237,0.396l0.793-0.238l0.793-1.27l1.665-0.951c0,0,0.793-0.634,0.952-0.872
	c0.159-0.237,2.459-1.586,2.459-1.586l1.507-1.349l0.873-0.714l1.585-0.634l1.11-0.397l0.873-0.158l1.031-1.031l4.044-0.079
	l0.635-1.11l1.824-1.11l0.951-0.396l1.587-0.158l1.03-0.238l-0.079-0.714l0.079-0.714l0.952-0.951v-1.428h-1.189l-1.19-0.793h-1.427
	l-1.348,0.555l-1.27,0.476l-1.11,0.556l-1.349,0.476c0,0,0,0.634-0.237,0.714c-0.238,0.08-2.301,0.08-2.301,0.08l-1.823,0.078
	l-0.873-0.396l-0.714-1.428l-0.316-1.03c0,0-0.396-1.031-0.476-1.269c-0.08-0.238-0.08-1.824-0.08-1.824l-0.079-1.666l0.079-1.11
	l0.237-1.11l-1.189-0.317c0,0-1.189,0-1.428-0.476c-0.237-0.477-0.951-1.428-0.951-1.666c0-0.237-0.396-1.188-0.396-1.585
	c0-0.397-0.079-1.27-0.079-1.825c0-0.555-0.079-0.872-0.079-1.11s-0.556-1.586-0.556-1.586l-0.872-0.635l-1.189-0.158l-0.952,0.237
	l-2.063,0.397h-2.537l-1.031,0.079l-0.477,1.031l-0.316,0.793l-1.189-0.555l-1.428-0.556l-0.793-1.19c0,0-0.477-0.714-1.031-0.792
	c-0.555-0.079-1.19-0.079-1.982-0.079c-0.793,0-3.015,0-3.015,0l-1.506-0.477l-0.952-0.079l-0.952,0.476l-1.348,0.714l-0.952,1.27
	l-1.823,1.428l-1.428,1.744l-0.396,1.189l-1.031,1.507l-0.159,1.27l-0.714,1.109l-0.078,1.032l-0.714,1.189l-1.428,1.03
	l-1.508,1.349L140.297,185.9z"/>
<linearGradient id="SVGID_13_" gradientUnits="userSpaceOnUse" x1="195.5767" y1="182.5693" x2="218.7339" y2="182.5693">
	<stop  offset="0" style="stop-color:#FF5E00"/>
	<stop  offset="1" style="stop-color:#910000"/>
</linearGradient>
<path style="fill:url(#SVGID_13_);" d="M195.577,185.741l2.141-1.269l1.27-0.238l2.379-0.159l1.586-0.396h0.872h1.189l1.587-0.476
	l1.349-0.714l0.714-0.318l0.871-0.396l0.635-0.635l0.873-1.031l0.317-1.427l0.316-1.032l0.08-0.951l1.109-0.714l0.477,0.317
	l0.396,0.872c0,0,0.635,0.316,0.873,0.476c0.237,0.159,1.269,0.318,1.269,0.318h1.665h0.714l0.079,2.537l0.396,0.714l-0.078,0.714
	l-0.714,0.476l-1.27,0.714l-0.556,0.317l-1.11,0.317l-1.03,0.793l-0.555,1.031l-0.714,1.109l-0.397,0.635v0.873l-1.506,0.158
	c0,0-2.142,0-2.38,0s-1.903,0-1.903,0l-0.714-0.634v-0.794h-1.11l-0.793,0.08v1.269l-0.556,0.635c0,0-1.903-0.08-2.142-0.08
	c-0.237,0-1.109-0.316-1.109-0.316l-1.189-0.317l-0.635,0.714l-0.635,0.238l-0.396-0.714l0.476-1.111l-0.317-0.872l-0.793-0.317
	L195.577,185.741z"/>
<linearGradient id="SVGID_14_" gradientUnits="userSpaceOnUse" x1="214.1343" y1="166.5088" x2="227.062" y2="166.5088">
	<stop  offset="0" style="stop-color:#FF5E00"/>
	<stop  offset="1" style="stop-color:#910000"/>
</linearGradient>
<path style="fill:url(#SVGID_14_);" d="M214.611,176.145l0.951,0.397l0.872,0.396l2.538-0.317l0.635-0.714l0.793-0.793l0.635-0.873
	l1.03-1.269l0.952-1.349l0.476-0.871l0.635-1.666l0.317-1.508l1.586-0.792c0,0,0.555-0.318,0.555-0.635
	c0-0.317,0.238-1.982,0.238-1.982l0.238-2.696v-2.063l-0.555-1.587l-1.032-0.634l-1.189-0.872l-0.952-0.238h-1.823l-0.794,0.317
	l-0.713,0.476l-0.714,0.556v0.951l0.079,0.872l0.158,1.189l0.477,1.032l-0.477,0.714l-0.079,0.634v1.189l-0.237,1.508l-0.477,1.823
	l-0.476,1.031l-0.793,0.952l-0.396,1.03l-0.396,0.714l-1.269,0.238l-0.952,0.476l-0.079,1.349l-0.08,1.348l-0.158,1.508
	L214.611,176.145z"/>
<linearGradient id="SVGID_15_" gradientUnits="userSpaceOnUse" x1="153.0073" y1="159.7979" x2="225.2183" y2="159.7979">
	<stop  offset="0" style="stop-color:#910000"/>
	<stop  offset="1" style="stop-color:#FF5E00"/>
</linearGradient>
<path style="fill:url(#SVGID_15_);" d="M153.007,167.263l0.06,0.714l2.081-0.06h2.022l2.142,0.119l2.855,0.06l1.428,0.714
	l0.654,0.713l0.595,0.714h1.13l0.356-0.476c0,0,0.298-0.416,0.714-0.416c0.417,0,1.487,0.06,1.903,0
	c0.417-0.06,0.893-0.357,1.131-0.357c0.237,0,1.844-0.178,1.844-0.178s1.309-0.238,1.487-0.238c0.178,0,1.605,0,1.605,0l1.012,0.356
	l0.595,0.595l0.595,0.714l0.356,1.249l0.357,1.309v1.309l0.297,1.131l0.179,0.595l0.476,0.773l0.714,0.832l0.833,0.477l0.714,0.178
	l0.892,0.417l0.298,0.833l-0.06,1.011l-0.119,0.952l-0.356,0.832v1.189l0.06,1.131l0.356,0.951l0.298,0.535l0.535,0.833l0.06,0.833
	l0.119,0.595h1.011l1.487-0.06l0.297-0.773l0.654-0.832l1.012-0.357l0.356,0.357c0,0,0.833,0.059,1.012-0.06
	c0.178-0.119,0.714-0.417,0.714-0.417l1.309-0.416l0.951-0.535l0.773-0.417l1.547-0.356l1.309-0.298l0.892-0.356l0.952-0.298
	l1.368-0.297l1.309-0.179l0.892-0.179l1.012-0.118h1.784l1.249-0.06l1.309-0.477c0,0,1.368-0.595,1.368-0.772
	c0-0.179,1.309-1.012,1.309-1.012l0.714-1.011l0.595-1.487l0.535-1.428l0.477-0.893l0.595-1.07l0.654-0.833l0.356-1.189l0.417-1.368
	l0.772-0.951l1.785-0.06l0.476-0.773l0.595-1.428l0.773-1.011c0,0,0.06-0.773,0.06-1.071c0-0.297,0.416-2.022,0.416-2.022
	l-0.238-1.011l-0.416-0.535l0.179-1.249l0.595-0.357l-0.06-1.07l-0.654-0.476c0,0,0.06-0.833,0.06-1.071
	c0-0.237,0.535-1.189,0.535-1.189l0.298-0.476c0,0,0.06-0.833,0.476-1.071c0.416-0.237,0.833-0.356,0.833-0.356l0.476-0.06
	l0.535,0.119h1.368h0.952l0.118-0.535l-1.309-1.19c0,0-0.772-1.13-0.832-1.309c-0.06-0.178,0.118-1.963,0.118-1.963l0.298-1.784
	l0.654-0.356h1.011l0.119-0.952l0.477-1.13l0.654-0.773l0.595-0.714l0.06-1.428l-1.487-0.714l-1.071-0.476l-1.249-0.476
	c0,0-0.772,0-0.951,0s-1.309,0-1.309,0h-0.833l-0.893,0.356h-0.772l-0.238-0.832l-0.238-1.19l-0.951-0.832l-0.595-0.773
	l-0.654-0.298c0,0-0.833-0.119-1.071-0.119c-0.237,0-1.309,0-1.309,0l-0.595-0.059l-1.07-0.417l-2.082-1.13l-1.368-1.07
	l-1.011-0.833c0,0-0.714-0.06-0.952-0.06s-1.13,0.119-1.13,0.119l-0.119,0.595l-0.833,0.06l-1.428-0.06l-1.011-1.071l-0.298-0.713
	l-0.297-0.654l-0.833-0.535l-1.07-0.18l-1.071,0.061l-2.141,1.486l-3.629,2.32l-3.271,1.605l-1.487,0.477l-0.951,0.416l-0.119-1.606
	c0,0-0.714-0.832-0.893-0.832c-0.178,0-1.13,0-1.13,0l-0.714,0.892l-1.011,0.357l-0.595,0.178l0.06,1.726l0.356,1.249l-0.06,1.368
	l-0.237,1.011l-1.071,0.595l-0.951-0.118l-1.012,0.476l-0.119,1.07l-0.118,1.784l0.595,0.833l0.118,1.012l0.119,1.07l-0.119,1.011
	l-0.892,0.654l-0.417,0.773l0.179,0.952l0.476,0.238l0.179,1.011l-0.237,1.368l0.178,1.13c0,0-0.356,0.357-0.476,0.714
	c-0.119,0.357-1.13,1.309-1.13,1.309l-1.368,0.535l-1.13,1.071l-0.654,0.714l-0.773-0.893c0,0-0.952-0.654-1.249-0.654
	c-0.298,0-1.19,0-1.19,0h-1.784l-1.605-0.06l-0.952,0.179l-0.654,0.773l-0.951,0.356l-1.368,0.119l-1.249,0.237l-1.606,0.238
	l-1.189,0.06c0,0-0.714,0.06-0.893,0.238c-0.179,0.178-0.893,0.416-1.07,1.011c-0.179,0.595-1.726,2.379-1.726,2.379
	s-1.13,1.428-1.309,1.726C153.007,166.311,153.007,167.263,153.007,167.263z"/>
<linearGradient id="SVGID_16_" gradientUnits="userSpaceOnUse" x1="134.4292" y1="220.4404" x2="168.1353" y2="220.4404">
	<stop  offset="0" style="stop-color:#001FD0"/>
	<stop  offset="1" style="stop-color:#45FFF3"/>
</linearGradient>
<path style="fill:url(#SVGID_16_);" d="M134.429,211.994v1.744l0.079,1.744l0.158,0.952l1.348,0.08h1.746l1.585,0.079l1.746,0.237
	l2.379,0.635l1.428,0.634l1.109,0.238l1.428,0.476l1.27,0.318l1.031,0.555l5.551,5.313l1.189,0.396l1.587-0.079h1.744
	c0,0,0.477-0.237,0.635,0.238c0.159,0.476,0.477,1.03,0.477,1.03l-0.159,0.952l-0.396,0.873l-0.951,1.03l-0.396,0.873l0.951,0.237
	l0.952,0.396l0.635-0.952l1.348-1.189l1.189-1.03l2.142-1.111c0,0,0.556-0.476,0.635-0.792c0.078-0.317,0.635-2.301,0.635-2.301
	l0.476-1.744l0.158-1.903V218.1l-0.079-2.141c0,0,0-1.586,0-1.824c0-0.237-0.079-1.983-0.079-1.983l-0.238-1.109l-1.428-1.11h-1.27
	l-1.03,0.396l-0.635,0.555l-0.714,0.159l-1.348,0.396l-0.714-0.317l-0.476-0.555l-0.476-0.556l-1.19,0.08l-1.031,0.078l-1.586,0.238
	h-1.031l-0.872,0.952l-0.714,0.555l-1.349-0.079l-0.476,0.476l-0.714,0.952l-0.396,0.872h-0.952h-1.109l-1.189-0.158l-1.666-0.159
	l-1.586-0.396l-1.349-0.476l-1.269-0.396l-1.269-0.159h-0.873l-1.982-0.316l-1.507-0.159L134.429,211.994z"/>
<linearGradient id="SVGID_17_" gradientUnits="userSpaceOnUse" x1="108.5742" y1="239.3115" x2="159.8071" y2="239.3115">
	<stop  offset="0" style="stop-color:#001FD0"/>
	<stop  offset="1" style="stop-color:#45FFF3"/>
</linearGradient>
<path style="fill:url(#SVGID_17_);" d="M109.05,237.531l1.269-0.158l1.11-0.714l1.269-0.476l1.19,0.237l1.11,1.19l1.824,1.585
	l1.507,1.666v1.031l0.634,0.714l0.873-0.238l1.031-0.556l0.714-0.396l0.793,0.714l0.476,0.555l0.714,0.951l1.031,0.873l1.189-0.238
	l1.031,1.031l1.19,0.555l0.873,0.635l1.031,1.189l0.793,1.031l1.19-0.079l1.269,0.951l0.238,0.793l0.873,0.794l0.873,1.189
	c0,0,0.316-0.001,0.555,0.158s1.189,0.794,1.189,0.794l0.635,0.714l-0.08,1.823l-0.633,0.872c0,0-1.032,0.556-1.032,0.793
	c0,0.238-0.079,3.252-0.079,3.252l0.793-0.635l1.189-0.871l1.665-0.794l0.714-1.348l1.349-1.428l0.477-2.063l0.714-1.982
	l0.713-1.189v-2.063l0.714-1.189l0.952-0.793l0.079-1.824l1.745-0.396l0.872-0.634l0.237-1.904l1.111-0.793l0.793-3.331l0.713-0.396
	l1.111,0.317l0.079,0.555l0.872,0.317l0.635-0.713l0.872-0.238h1.189l-0.079,1.903l-0.792,0.793l-0.952,1.349l-1.666,1.506
	l-0.793,1.428l-0.714,1.111l-1.586,1.03l-1.745,1.11c0,0-1.031,0.476-1.269,0.634c-0.238,0.159-0.873,0.557-0.873,0.557l0.08,0.951
	l0.634-0.08l0.873-0.079l1.349-0.635l1.585-1.189l1.508-1.428l1.507-1.428l1.665-1.903l1.903-2.617l1.189-2.22l1.349-2.776
	l0.556-1.507l0.792-1.824l-0.714-0.476l-1.03-0.238l-0.159-1.507l0.635-1.586l0.873-1.348v-0.635l-2.142,0.159l-1.745-0.397
	l-1.269-0.316l-1.666-1.666l-0.951-1.11l-1.269-1.189c0,0-1.348-0.793-1.666-1.031c-0.317-0.237-1.824-0.635-1.824-0.635
	s-1.665-0.635-2.142-0.714c-0.476-0.078-1.903-0.078-2.379-0.316s-2.458-0.556-2.696-0.635s-1.429-0.634-2.935-0.555
	c-1.507,0.079-3.41,0.079-3.965,0.079s-1.745,0-1.745,0l-1.189,0.872l-1.349,0.952l-1.824,0.871l-1.428,0.873l-1.269,0.793
	l-1.269,0.714l-14.117,14.275L109.05,237.531z"/>
<linearGradient id="SVGID_18_" gradientUnits="userSpaceOnUse" x1="155.5649" y1="97.4312" x2="185.7817" y2="97.4312">
	<stop  offset="0" style="stop-color:#00D065"/>
	<stop  offset="1" style="stop-color:#2E8B00"/>
</linearGradient>
<path style="fill:url(#SVGID_18_);" d="M169.126,70.902l1.784,0.238l1.428,0.595l1.784,0.714l0.596,1.189l0.595,2.379l-0.238,2.617
	l-0.119,2.379l-0.476,1.189l-0.476,1.19l0.118,1.309l1.428,0.952l0.833,1.189l1.07,1.309l1.785,0.833h1.784l0.476,1.309l-0.595,1.07
	l-1.189,0.595l-0.833,1.07l-0.237,1.309l-0.238,1.309L179,96.598l1.07,1.428l0.714,1.071l0.238,1.309l0.356,1.07l0.833,1.309
	l0.714,0.595l1.07,0.713l1.309,0.238l0.477,0.714l-0.833,0.595l-1.07,1.189l-0.714,1.071l-0.833,1.428l-0.119,1.784v1.071
	l1.428,0.952c0,0,0.119,0.238,0,0.714c-0.119,0.476,0,2.498,0,2.498l-0.595,0.833v1.427l0.476,0.833l-0.119,1.428l-0.951,0.119
	l-2.855,1.189l-2.022,0.476l-2.379,0.356l-1.309,0.238l-0.238,0.714l-1.784-0.952l-1.189-0.476l-1.071-0.476l-1.189-0.714
	l-0.951-0.952h-0.952l-1.903,0.119l-1.309,0.952l-0.595,1.189l-1.428-0.476l-1.189-0.477l-0.833-0.951l-1.07-1.903
	c0,0,0.237-0.952-0.238-0.952s-1.784,0.952-1.784,0.952l-0.595-2.142v-3.926l0.476-4.283l1.189-3.45l1.071-2.022l0.476-2.142
	l0.238-2.498l0.713-1.428l1.904-2.022l0.951-0.952l0.952-1.427l0.714-1.547l0.476-2.022v-1.428l-0.476-1.666l0.118-1.784
	l0.477-2.022l1.784-0.952l1.665-1.428l1.19-1.309l0.713-1.785l0.477-2.022v-1.784l-1.071-1.309L169.126,70.902z"/>
<linearGradient id="SVGID_19_" gradientUnits="userSpaceOnUse" x1="183.6401" y1="125.0303" x2="241.6938" y2="125.0303">
	<stop  offset="0" style="stop-color:#FFAB00"/>
	<stop  offset="1" style="stop-color:#D07800"/>
</linearGradient>
<path style="fill:url(#SVGID_19_);" d="M183.64,111.588l0.119-1.904l0.832-1.784l1.309-0.714l0.833-0.833l1.071-1.19l1.07,0.238
	l0.714,1.07l0.833,0.952l1.07,0.357l1.428,0.714l0.951-0.119l1.428-0.833l1.071-0.476h1.903l0.714-0.833l1.665-1.428l1.07-1.784
	l0.357-0.952v-1.309l-0.238-0.476l-0.119-1.309l0.595-0.833h1.19l0.714,0.476c0,0,1.189-0.119,1.665,0
	c0.476,0.119,0.833,0.714,0.833,0.714h1.665l1.309-0.357l1.666-0.714l2.022-0.476l1.546-0.595l0.952-1.547l1.07-0.714l1.547-0.713
	l0.951,0.476l0.238,0.714l0.238,1.071l0.237,1.666l0.952,0.833l1.189,0.238l2.142-1.427l1.309-1.309l1.309-0.357l0.951-1.428
	l0.833-0.952l0.952-0.357h0.832l0.833,0.357l1.189,0.476l0.952,0.357l1.546,1.07l0.833,0.714l0.952,0.714l0.951,0.714l0.476,1.666
	l-0.118,1.07l0.237,0.833l1.071,0.595v0.595l-0.119,3.688l-0.952,0.476l-0.951,0.476v1.309l0.237,0.952l0.595,1.19l0.833,1.309
	l1.309,1.189l1.189,0.595l-0.595,1.785l-1.784,2.141l-1.547,1.785l-1.309,1.547l-0.118-0.715l-1.071-0.713l-1.309-0.119
	l-1.189,0.357c0,0-0.476,0.713-0.476,1.07c0,0.356,0.119,1.07,0.119,1.07v1.428l-0.596,1.189l-0.832,1.547l0.237,2.26l0.238,1.189
	l0.356,0.952l-0.118,1.071l-0.238,0.713l0.119,3.212l0.237,2.499l-0.118,1.427l0.476,0.952v1.189l-0.238,2.142l-0.595,1.309
	l-0.237,1.903l-0.477,1.665l-0.595,1.071v2.022l0.476,0.356v0.952l-1.665,1.546l-1.547,1.903l-0.832,0.238l-1.19-0.714l-0.595-1.189
	l-0.237-1.189l-0.952-0.714l-0.595-1.07l-0.238-1.19l0.119-0.951l1.071-1.189l0.832-1.547l1.19-1.189l0.713-1.547v-1.784
	l-1.903-1.428l-1.784-0.714l-1.547-0.595h-1.665h-1.665l-0.833-0.476l-0.357-0.952l-1.309-1.309l-1.07-0.595
	c0,0-1.309-0.238-1.784-0.238c-0.477,0-1.309-0.356-1.309-0.356l-1.785-0.595l-1.427-1.189l-1.428-0.714l-0.833-0.356l-1.784-0.119
	l-1.309,0.237l-0.952,0.356l-0.476-0.951l-0.357-1.189l-0.713-0.951l-2.022-0.357l-1.071,0.119l-1.784,0.476l-1.784,1.309
	l-2.142,1.071l-1.784,1.189l-1.666,0.832l-1.189,0.952l0.119-1.665c0,0,0.237-1.785-0.119-2.143
	c-0.356-0.356-0.833-1.783-0.833-1.783l-0.832-1.309l-0.238-2.38l0.238-1.071l0.237-2.021v-2.617l-0.476-1.428l-0.357-2.379
	l0.596-1.189l0.356-1.547l-0.595-1.903L183.64,111.588z"/>
<linearGradient id="SVGID_20_" gradientUnits="userSpaceOnUse" x1="238.8394" y1="105.6396" x2="247.9995" y2="105.6396">
	<stop  offset="0" style="stop-color:#FFAB00"/>
	<stop  offset="1" style="stop-color:#D07800"/>
</linearGradient>
<polygon style="fill:url(#SVGID_20_);" points="239.791,99.572 240.98,100.405 242.408,100.762 243.955,101.714 245.62,102.666 
	247.524,104.569 248,104.926 247.405,105.758 245.501,108.375 244.074,109.922 242.884,111.707 241.932,111.826 240.743,111.588 
	240.029,110.755 239.315,109.922 238.839,108.852 238.958,107.781 240.029,107.662 240.624,106.115 240.743,103.855 
	240.624,102.189 240.029,101.238 239.315,100.405 239.315,99.454 "/>
<linearGradient id="SVGID_21_" gradientUnits="userSpaceOnUse" x1="238.8394" y1="99.0371" x2="256.4458" y2="99.0371">
	<stop  offset="0" style="stop-color:#FFAB00"/>
	<stop  offset="1" style="stop-color:#D07800"/>
</linearGradient>
<polygon style="fill:url(#SVGID_21_);" points="238.839,97.907 239.91,98.502 241.218,99.334 242.527,99.811 243.955,100.524 
	244.788,101.119 245.858,101.714 247.167,102.666 248.237,103.379 249.308,103.736 250.378,102.784 252.163,101.357 253.709,99.454 
	254.899,98.026 255.732,97.193 256.208,95.766 256.446,94.814 254.662,94.338 253.115,94.576 252.044,94.933 251.45,96.598 
	250.141,97.312 248.475,97.55 246.572,97.55 244.788,97.55 243.716,97.074 242.527,96.36 241.813,95.766 240.862,95.766 
	239.791,96.36 239.196,97.193 "/>
<linearGradient id="SVGID_22_" gradientUnits="userSpaceOnUse" x1="186.7329" y1="80.9546" x2="222.0649" y2="80.9546">
	<stop  offset="0" style="stop-color:#FFAB00"/>
	<stop  offset="1" style="stop-color:#D07800"/>
</linearGradient>
<path style="fill:url(#SVGID_22_);" d="M213.857,55.08h0.951l1.428,0.476l0.357,0.595l-0.595,0.833l-0.238,0.952l0.119,0.952
	l0.833,1.309l0.595,1.428l0.714,1.309v1.309l0.356,1.428v2.736l0.476,4.164l0.119,1.784l0.238,1.309l0.476,2.379l0.476,1.309
	l0.357,0.952l1.189,0.833l0.356,1.07c0,0-0.237,0.714-0.595,0.833c-0.356,0.119-0.832,1.309-0.832,1.309l0.118,1.666l0.477,1.309
	l0.237,1.189l-0.476,1.428l-2.022,1.189l-2.022,1.546l-1.428,1.309l-1.546,1.666l-1.666,0.952l-1.665,0.119l-1.071,0.714
	l-1.189,0.357h-1.428l-0.951-0.119l-1.428-0.476l-1.784-0.357l-0.952,0.119l-0.595,0.714l-0.833,0.952l-0.118,1.428v1.189
	l-0.357,1.428l-0.714,0.952l-0.951,0.952l-1.309,0.357l-1.309,0.714l-1.309,0.714l-1.309,0.476c0,0-0.477-0.357-1.19-0.476
	c-0.713-0.119-0.713-0.119-0.713-0.119l-0.833-1.071l-0.477-0.833l-0.713-0.476h-1.547l-0.119-1.784l-0.119-1.547v-1.666
	l-0.356-1.309l-0.238-1.903l0.595-1.546l0.714-1.309l0.833-1.903l0.476-1.903l0.357-1.309l0.714-0.714l0.951-0.714l1.071-0.357
	l1.309-0.476l1.546-0.595l1.547-1.427l1.189-1.309l1.07-0.833l1.547-0.238l1.189-0.119l1.309,0.238h1.309l1.428-0.595l0.833-1.546
	l0.119-1.666l-0.357-0.952l-0.595-1.071l0.238-1.546l0.237-1.189l0.477-0.952l0.713-0.952l-0.356-1.189l-0.119-1.784l-0.237-2.142
	v-1.428l0.237-1.546l0.714-1.189l0.952-1.666l1.189-0.357l2.498-1.428l1.07-1.427L213.857,55.08z"/>
<linearGradient id="SVGID_23_" gradientUnits="userSpaceOnUse" x1="217.4253" y1="70.9023" x2="242.646" y2="70.9023">
	<stop  offset="0" style="stop-color:#FFAB00"/>
	<stop  offset="1" style="stop-color:#D07800"/>
</linearGradient>
<path style="fill:url(#SVGID_23_);" d="M218.258,55.199l-0.476,1.07l-0.357,0.952l0.119,1.309l0.119,0.595l0.476,0.833l0.477,0.952
	l0.356,0.714v1.189l0.595,1.19l0.119,1.309v1.903l0.119,1.309l0.119,2.022l0.237,2.022l0.119,2.022l0.238,1.547
	c0,0,0.119,0.714,0.237,1.309c0.119,0.595,0.833,1.903,0.833,1.903l1.189,0.595l0.477,0.833l-0.238,1.427
	c0,0,0.119,0.476-0.238,0.833c-0.356,0.357-0.237,1.189-0.237,1.189l1.309,0.119l1.665-0.119l1.547-0.119h1.309l1.07,0.356
	l1.309,0.833l1.07,1.309l0.952-0.119l1.189-1.189l0.714-0.833l-0.356-1.07l-0.357-0.833v-1.546l0.714-1.546l0.238-1.785l1.189-2.022
	l1.665-2.022l1.19-2.022l1.07-1.904l0.951-1.784l1.666-1.071l-3.093-2.736l-2.617-2.022l-0.714-1.071c0,0-1.071-0.714-1.428-0.714
	c-0.357,0-1.547-0.714-1.547-0.714l-1.665-1.189l-1.784-1.189l-1.785-0.952l-1.784-0.952h-1.903h-2.498h-1.189L218.258,55.199z"/>
<linearGradient id="SVGID_24_" gradientUnits="userSpaceOnUse" x1="236.4595" y1="74.4116" x2="257.5161" y2="74.4116">
	<stop  offset="0" style="stop-color:#FFAB00"/>
	<stop  offset="1" style="stop-color:#D07800"/>
</linearGradient>
<path style="fill:url(#SVGID_24_);" d="M242.646,68.285h1.07l1.547,0.595l1.428,0.714l1.903,0.119h2.26h1.904l1.665,0.238
	l1.309,0.713l0.833,1.071v0.833l0.714,1.784v1.309l0.237,1.903l-0.356,0.714h-2.022h-2.379l-1.547-0.595l-1.07-0.238l-0.714,0.238
	l-0.833,0.833l-0.119,0.952l-0.238,1.07h-1.189l-0.595-0.833l-1.546,0.119h-0.596l-0.356-0.833l0.952-1.666v-1.189l-1.785-0.357
	l-1.665,0.238l-0.952,0.952l-1.665,0.952c0,0-0.833,0.238-1.189,0.238c-0.357,0-1.19,0.119-1.19-0.238s1.071-1.784,1.071-1.784
	l0.832-1.428l1.785-2.736L242.646,68.285z"/>
<linearGradient id="SVGID_25_" gradientUnits="userSpaceOnUse" x1="235.1509" y1="82.9771" x2="259.3198" y2="82.9771">
	<stop  offset="0" style="stop-color:#FFAB00"/>
	<stop  offset="1" style="stop-color:#D07800"/>
</linearGradient>
<path style="fill:url(#SVGID_25_);" d="M235.746,79.825l-0.595,1.546l0.238,1.071l0.595,0.952l-0.238,1.427l-0.237,1.071
	l0.714,0.357l1.428,0.119l1.903-0.357l1.546-1.071l1.903-1.189l0.714-0.119l1.903,0.357l0.238,1.189l-0.476,0.595l-0.595,2.022
	v0.833l0.356,0.476l1.071,0.238l0.832-1.071l1.547-1.071h1.07l2.261-0.357l1.903-0.476l1.428-1.309l0.951-0.714l1.071-0.238h2.022
	v-1.19c0,0,0.118-1.428-0.238-1.546c-0.357-0.119-0.714-1.309-0.714-1.309l-0.595-0.476l-2.855-0.476h-1.903l-1.665-0.119h-1.428
	l-0.595,1.189l-0.952,1.309l-1.428,0.238l-1.07-0.833l-1.189,0.119l-0.833,0.476l-0.833-0.713l-0.832-1.19l0.595-1.784l0.832-1.19
	h-1.07l-1.309,0.714l-0.595,0.952l-1.07,0.476l-0.714,0.119l-1.666,0.119L235.746,79.825z"/>
<linearGradient id="SVGID_26_" gradientUnits="userSpaceOnUse" x1="219.0913" y1="91.4233" x2="259.3013" y2="91.4233">
	<stop  offset="0" style="stop-color:#FFAB00"/>
	<stop  offset="1" style="stop-color:#D07800"/>
</linearGradient>
<polygon style="fill:url(#SVGID_26_);" points="219.091,93.029 220.4,94.1 220.875,95.052 220.995,95.885 221.589,96.836 
	221.589,97.312 221.947,97.907 222.779,97.431 223.493,96.598 224.207,95.409 225.396,95.409 226.11,94.338 227.181,93.386 
	228.727,92.435 229.917,92.078 231.107,92.315 232.416,92.792 233.724,93.029 234.914,93.981 236.459,94.814 237.292,95.885 
	238.601,95.766 239.91,94.814 240.862,94.219 241.932,94.933 243.241,95.766 244.43,96.123 245.858,96.717 248.119,96.598 
	250.022,96.479 250.378,95.766 251.211,94.457 252.044,93.862 253.234,93.505 254.542,93.505 255.851,93.505 257.16,93.505 
	257.635,92.672 258.111,91.364 258.587,89.817 259.301,87.557 259.301,85.892 258.349,85.297 256.921,85.178 255.97,85.772 
	255.137,86.486 254.067,87.081 253.115,87.557 251.568,87.795 250.378,87.795 249.308,88.271 248,88.866 247.405,89.698 
	246.572,90.65 245.144,90.769 244.311,90.055 243.955,88.747 243.955,87.438 244.193,85.772 244.311,85.178 243.716,84.94 
	242.646,85.178 241.576,85.892 240.148,86.962 239.077,87.557 237.173,87.438 236.341,87.438 235.27,87.438 233.605,87.438 
	232.058,87.557 230.75,87.438 229.679,86.129 228.371,85.416 227.299,85.416 225.04,85.178 221.947,85.059 222.184,86.011 
	222.303,86.843 222.779,88.152 222.779,88.747 222.184,89.817 221.351,90.769 220.281,91.721 "/>
<linearGradient id="SVGID_27_" gradientUnits="userSpaceOnUse" x1="156.397" y1="41.3994" x2="168.6509" y2="41.3994">
	<stop  offset="0" style="stop-color:#2E8B00"/>
	<stop  offset="1" style="stop-color:#00D065"/>
</linearGradient>
<path style="fill:url(#SVGID_27_);" d="M156.874,46.039l0.714-0.476l0.951-0.238l0.595,0.238l0.714,0.357l0.833-0.476l0.714-0.713
	l0.833-0.476l0.832,0.357l0.595-0.357l1.071-0.952l1.309-0.119l1.07-1.546l0.952-1.428l0.237-1.189l0.357-1.189l-1.903-0.119
	l-1.309-0.238h-1.666l-0.832,0.119h-1.666l-1.07-0.357l-1.428-0.476l-1.189,0.238l-0.477,1.309l-0.118,1.071l-0.119,1.309
	c0,0,0.237,1.309,0,1.666c-0.238,0.357-0.357,1.903-0.357,1.903l-0.119,1.666L156.874,46.039z"/>
<linearGradient id="SVGID_28_" gradientUnits="userSpaceOnUse" x1="160.7993" y1="35.0942" x2="162.9409" y2="35.0942">
	<stop  offset="0" style="stop-color:#2E8B00"/>
	<stop  offset="1" style="stop-color:#00D065"/>
</linearGradient>
<polygon style="fill:url(#SVGID_28_);" points="161.75,36.046 162.941,35.213 162.464,34.143 161.513,34.262 160.799,35.451 "/>
<linearGradient id="SVGID_29_" gradientUnits="userSpaceOnUse" x1="157.1108" y1="33.5479" x2="160.6802" y2="33.5479">
	<stop  offset="0" style="stop-color:#2E8B00"/>
	<stop  offset="1" style="stop-color:#00D065"/>
</linearGradient>
<path style="fill:url(#SVGID_29_);" d="M160.68,32.596l-0.595,1.546l-0.119,0.833c0,0-0.714-0.238-1.07-0.238
	c-0.357,0-1.785-0.238-1.785-0.238l0.595-1.071l1.071-1.309L160.68,32.596z"/>
<linearGradient id="SVGID_30_" gradientUnits="userSpaceOnUse" x1="151.9956" y1="36.4619" x2="154.8511" y2="36.4619">
	<stop  offset="0" style="stop-color:#2E8B00"/>
	<stop  offset="1" style="stop-color:#00D065"/>
</linearGradient>
<polygon style="fill:url(#SVGID_30_);" points="153.542,36.879 152.234,38.306 151.996,36.879 152.353,35.332 153.662,34.618 
	154.851,34.618 154.851,35.332 154.375,36.403 "/>
<linearGradient id="SVGID_31_" gradientUnits="userSpaceOnUse" x1="146.8804" y1="41.7559" x2="149.9731" y2="41.7559">
	<stop  offset="0" style="stop-color:#2E8B00"/>
	<stop  offset="1" style="stop-color:#00D065"/>
</linearGradient>
<polygon style="fill:url(#SVGID_31_);" points="149.973,40.566 148.903,41.756 147.951,43.303 146.88,43.897 147.594,41.994 
	148.665,40.091 149.498,39.615 "/>
<linearGradient id="SVGID_32_" gradientUnits="userSpaceOnUse" x1="152.9478" y1="40.8047" x2="155.6841" y2="40.8047">
	<stop  offset="0" style="stop-color:#2E8B00"/>
	<stop  offset="1" style="stop-color:#00D065"/>
</linearGradient>
<polygon style="fill:url(#SVGID_32_);" points="154.256,40.209 153.423,40.448 152.948,41.042 153.662,41.28 154.375,41.637 
	155.684,40.923 154.851,39.972 "/>
<linearGradient id="SVGID_33_" gradientUnits="userSpaceOnUse" x1="154.7319" y1="37.1167" x2="155.8022" y2="37.1167">
	<stop  offset="0" style="stop-color:#2E8B00"/>
	<stop  offset="1" style="stop-color:#00D065"/>
</linearGradient>
<polygon style="fill:url(#SVGID_33_);" points="154.732,37.831 155.684,37.831 155.802,36.403 154.97,36.76 "/>
<linearGradient id="SVGID_34_" gradientUnits="userSpaceOnUse" x1="154.0181" y1="43.7188" x2="155.3267" y2="43.7188">
	<stop  offset="0" style="stop-color:#2E8B00"/>
	<stop  offset="1" style="stop-color:#00D065"/>
</linearGradient>
<polygon style="fill:url(#SVGID_34_);" points="155.327,43.66 155.208,44.611 154.137,44.611 154.018,43.541 154.137,42.827 
	154.851,42.827 "/>
<g>
	<path d="M49.863,66.857l2.034-5.476h0.822l2.041,5.476h-0.807l-0.58-1.636h-2.156l-0.584,1.636H49.863z M51.447,64.582h1.706
		l-0.848-2.416L51.447,64.582z"/>
	<path d="M56.009,62.191v4.666h-0.684v-5.476h1.063l1.357,4.19c0.04,0.119,0.069,0.211,0.087,0.277
		c0.019,0.065,0.033,0.123,0.043,0.173c0.02-0.092,0.04-0.173,0.06-0.246c0.02-0.072,0.041-0.14,0.063-0.204l1.405-4.19h1.067v5.476
		h-0.721v-4.666c-0.017,0.079-0.037,0.159-0.06,0.24c-0.022,0.081-0.046,0.161-0.07,0.24l-1.409,4.186h-0.703l-1.375-4.186
		c-0.025-0.069-0.047-0.144-0.067-0.223C56.044,62.369,56.026,62.283,56.009,62.191z"/>
</g>
<g>
	<path d="M78.548,19.03h2.123c0.345,0,0.598,0.015,0.76,0.044c0.163,0.03,0.308,0.08,0.437,0.149
		c0.23,0.126,0.406,0.302,0.526,0.528s0.181,0.491,0.181,0.795c0,0.295-0.063,0.547-0.19,0.757s-0.314,0.374-0.565,0.493
		c0.213,0.059,0.365,0.16,0.456,0.301c0.09,0.142,0.146,0.381,0.169,0.718l0.063,0.903c0.012,0.193,0.038,0.338,0.076,0.433
		c0.038,0.095,0.096,0.163,0.173,0.203v0.152h-0.859c-0.069-0.114-0.118-0.358-0.145-0.732v-0.022l-0.044-0.713
		c-0.025-0.367-0.103-0.605-0.234-0.714c-0.131-0.109-0.46-0.164-0.985-0.164h-1.205v2.346h-0.736V19.03z M79.277,19.673v1.855
		h1.271c0.458,0,0.783-0.074,0.972-0.223c0.189-0.149,0.285-0.396,0.285-0.744c0-0.325-0.089-0.554-0.268-0.688
		c-0.178-0.134-0.508-0.201-0.989-0.201H79.277z"/>
	<path d="M83.604,19.03h2.123c0.345,0,0.598,0.015,0.76,0.044c0.163,0.03,0.308,0.08,0.437,0.149
		c0.23,0.126,0.406,0.302,0.526,0.528s0.181,0.491,0.181,0.795c0,0.295-0.063,0.547-0.19,0.757s-0.314,0.374-0.565,0.493
		c0.213,0.059,0.365,0.16,0.456,0.301c0.09,0.142,0.146,0.381,0.169,0.718l0.063,0.903c0.012,0.193,0.038,0.338,0.076,0.433
		c0.038,0.095,0.096,0.163,0.173,0.203v0.152h-0.859c-0.069-0.114-0.118-0.358-0.145-0.732v-0.022l-0.044-0.713
		c-0.025-0.367-0.103-0.605-0.234-0.714c-0.131-0.109-0.46-0.164-0.985-0.164H84.34v2.346h-0.736V19.03z M84.333,19.673v1.855h1.271
		c0.458,0,0.783-0.074,0.972-0.223c0.189-0.149,0.285-0.396,0.285-0.744c0-0.325-0.089-0.554-0.268-0.688
		c-0.178-0.134-0.508-0.201-0.989-0.201H84.333z"/>
</g>
<g>
	<path d="M141.703,28.075l2.033-5.476h0.822l2.041,5.476h-0.807l-0.58-1.636h-2.156l-0.584,1.636H141.703z M143.287,25.799h1.706
		l-0.848-2.416L143.287,25.799z"/>
	<path d="M147.164,28.075v-5.476h2.016c0.327,0,0.576,0.016,0.747,0.048s0.323,0.085,0.457,0.16
		c0.224,0.122,0.395,0.301,0.514,0.539c0.118,0.238,0.178,0.517,0.178,0.836c0,0.305-0.06,0.574-0.178,0.807
		c-0.119,0.233-0.293,0.419-0.521,0.558c-0.132,0.079-0.286,0.136-0.463,0.169c-0.178,0.034-0.47,0.05-0.876,0.05h-1.13v2.309
		H147.164z M147.908,25.104h1.249c0.434,0,0.736-0.069,0.909-0.208c0.172-0.139,0.258-0.376,0.258-0.714
		c0-0.324-0.085-0.558-0.256-0.699c-0.172-0.141-0.456-0.212-0.855-0.212h-1.305V25.104z"/>
</g>
<g>
	<path d="M66.89,107.539h2.123c0.345,0,0.598,0.015,0.76,0.044c0.163,0.03,0.308,0.08,0.437,0.149
		c0.23,0.126,0.406,0.302,0.526,0.528s0.181,0.491,0.181,0.795c0,0.295-0.063,0.547-0.19,0.757s-0.314,0.374-0.565,0.493
		c0.213,0.059,0.365,0.16,0.456,0.301c0.09,0.142,0.146,0.381,0.169,0.718l0.063,0.903c0.012,0.193,0.038,0.338,0.076,0.433
		c0.038,0.095,0.096,0.163,0.173,0.203v0.152H70.24c-0.069-0.114-0.118-0.358-0.145-0.732v-0.022l-0.044-0.713
		c-0.025-0.367-0.103-0.605-0.234-0.714c-0.131-0.109-0.46-0.164-0.985-0.164h-1.205v2.346H66.89V107.539z M67.619,108.182v1.855
		h1.271c0.458,0,0.783-0.074,0.972-0.223c0.189-0.149,0.285-0.396,0.285-0.744c0-0.325-0.089-0.554-0.268-0.688
		c-0.178-0.134-0.508-0.201-0.989-0.201H67.619z"/>
	<path d="M71.708,110.282c0-0.905,0.229-1.612,0.689-2.121c0.459-0.509,1.096-0.764,1.909-0.764c0.81,0,1.444,0.254,1.901,0.762
		c0.457,0.508,0.686,1.215,0.686,2.123c0,0.905-0.229,1.611-0.686,2.121c-0.457,0.509-1.091,0.764-1.901,0.764
		c-0.813,0-1.45-0.254-1.909-0.764C71.938,111.894,71.708,111.187,71.708,110.282z M72.478,110.282c0,0.701,0.162,1.25,0.485,1.645
		c0.324,0.396,0.771,0.593,1.344,0.593c0.57,0,1.015-0.197,1.336-0.593c0.321-0.396,0.481-0.944,0.481-1.645
		c0-0.704-0.161-1.253-0.481-1.647c-0.321-0.394-0.767-0.591-1.336-0.591c-0.573,0-1.021,0.197-1.344,0.591
		C72.64,109.029,72.478,109.578,72.478,110.282z"/>
</g>
<g>
	<path d="M116.349,120.245v4.666h-0.684v-5.477h1.063l1.357,4.19c0.04,0.118,0.069,0.211,0.087,0.276
		c0.019,0.066,0.033,0.123,0.043,0.174c0.02-0.092,0.04-0.174,0.06-0.246c0.02-0.072,0.041-0.14,0.063-0.204l1.405-4.19h1.067v5.477
		h-0.721v-4.666c-0.017,0.08-0.037,0.16-0.06,0.24c-0.022,0.08-0.046,0.16-0.07,0.24l-1.409,4.186h-0.703l-1.375-4.186
		c-0.025-0.07-0.047-0.145-0.067-0.224S116.366,120.337,116.349,120.245z"/>
	<path d="M123.193,124.911v-4.811h-1.729v-0.666h4.205v0.666h-1.729v4.811H123.193z"/>
</g>
<g>
	<path d="M166.838,107.305v-4.811h-1.729v-0.666h4.204v0.666h-1.729v4.811H166.838z"/>
	<path d="M169.738,104.572c0-0.905,0.229-1.612,0.689-2.121s1.096-0.764,1.909-0.764c0.811,0,1.444,0.254,1.901,0.762
		c0.457,0.508,0.686,1.215,0.686,2.123c0,0.905-0.229,1.611-0.686,2.121c-0.457,0.509-1.091,0.764-1.901,0.764
		c-0.813,0-1.449-0.254-1.909-0.764C169.967,106.184,169.738,105.477,169.738,104.572z M170.507,104.572
		c0,0.701,0.161,1.25,0.485,1.645c0.323,0.396,0.771,0.593,1.344,0.593c0.57,0,1.016-0.197,1.336-0.593
		c0.321-0.396,0.481-0.944,0.481-1.645c0-0.704-0.16-1.253-0.481-1.647c-0.32-0.394-0.766-0.591-1.336-0.591
		c-0.572,0-1.021,0.197-1.344,0.591C170.668,103.319,170.507,103.868,170.507,104.572z"/>
</g>
<g>
	<path d="M121.583,168.782v4.666h-0.684v-5.476h1.063l1.357,4.189c0.04,0.119,0.069,0.211,0.087,0.276
		c0.019,0.066,0.033,0.124,0.043,0.173c0.02-0.091,0.04-0.173,0.06-0.245c0.02-0.071,0.041-0.14,0.063-0.204l1.405-4.189h1.067
		v5.476h-0.721v-4.666c-0.017,0.08-0.037,0.16-0.06,0.24c-0.022,0.08-0.046,0.16-0.07,0.24l-1.409,4.186h-0.703l-1.375-4.186
		c-0.025-0.07-0.047-0.145-0.067-0.224S121.601,168.874,121.583,168.782z"/>
	<path d="M126.966,171.646h0.718c0.007,0.396,0.139,0.712,0.396,0.947c0.256,0.236,0.599,0.354,1.028,0.354
		c0.424,0,0.758-0.089,1.002-0.268c0.244-0.179,0.366-0.421,0.366-0.729c0-0.419-0.459-0.737-1.376-0.956
		c-0.054-0.012-0.096-0.021-0.126-0.029c-0.744-0.176-1.235-0.372-1.474-0.589s-0.359-0.525-0.359-0.924
		c0-0.488,0.179-0.881,0.535-1.177c0.357-0.296,0.832-0.444,1.424-0.444c0.605,0,1.081,0.155,1.428,0.467
		c0.347,0.311,0.523,0.737,0.528,1.28l-0.71,0.004c-0.025-0.367-0.149-0.648-0.374-0.844c-0.225-0.196-0.531-0.294-0.92-0.294
		c-0.364,0-0.655,0.08-0.874,0.24c-0.218,0.159-0.327,0.372-0.327,0.637c0,0.424,0.451,0.74,1.354,0.948
		c0.134,0.032,0.236,0.058,0.309,0.074l0.078,0.019c0.59,0.142,0.981,0.294,1.175,0.458c0.146,0.124,0.258,0.274,0.335,0.451
		c0.077,0.178,0.115,0.375,0.115,0.593c0,0.528-0.189,0.948-0.567,1.261c-0.378,0.313-0.889,0.468-1.534,0.468
		c-0.664,0-1.182-0.167-1.552-0.503S126.994,172.272,126.966,171.646z"/>
</g>
<g>
	<path d="M143.502,202.713v-5.476h2.016c0.327,0,0.576,0.016,0.747,0.048s0.323,0.086,0.457,0.16
		c0.224,0.121,0.395,0.301,0.514,0.539c0.118,0.237,0.178,0.517,0.178,0.836c0,0.305-0.06,0.574-0.178,0.807
		c-0.119,0.233-0.293,0.419-0.521,0.558c-0.132,0.08-0.286,0.136-0.463,0.17c-0.178,0.033-0.47,0.05-0.876,0.05h-1.13v2.309H143.502
		z M144.247,199.742h1.249c0.434,0,0.736-0.069,0.909-0.208c0.172-0.139,0.258-0.377,0.258-0.714c0-0.324-0.085-0.558-0.256-0.698
		c-0.172-0.142-0.456-0.212-0.855-0.212h-1.305V199.742z"/>
	<path d="M148.298,197.237h2.123c0.345,0,0.598,0.015,0.761,0.044c0.162,0.03,0.308,0.079,0.437,0.148
		c0.23,0.127,0.406,0.303,0.526,0.528s0.18,0.491,0.18,0.796c0,0.295-0.063,0.547-0.189,0.756c-0.126,0.21-0.314,0.374-0.565,0.493
		c0.214,0.06,0.365,0.16,0.456,0.301c0.09,0.142,0.146,0.381,0.169,0.718l0.063,0.903c0.012,0.193,0.037,0.338,0.076,0.433
		c0.038,0.096,0.096,0.163,0.173,0.203v0.152h-0.859c-0.069-0.114-0.117-0.358-0.145-0.732v-0.022l-0.045-0.714
		c-0.024-0.366-0.103-0.604-0.234-0.714c-0.131-0.108-0.459-0.163-0.984-0.163h-1.205v2.346h-0.736V197.237z M149.028,197.88v1.855
		h1.271c0.458,0,0.782-0.074,0.972-0.224c0.189-0.148,0.284-0.396,0.284-0.743c0-0.324-0.089-0.554-0.268-0.688
		s-0.508-0.201-0.988-0.201H149.028z"/>
</g>
<g>
	<path d="M162.285,184.493h0.717c0.008,0.396,0.14,0.712,0.396,0.947c0.256,0.236,0.599,0.354,1.027,0.354
		c0.424,0,0.758-0.089,1.002-0.268s0.366-0.421,0.366-0.729c0-0.419-0.458-0.737-1.375-0.956c-0.055-0.012-0.097-0.021-0.127-0.029
		c-0.743-0.176-1.234-0.372-1.474-0.589s-0.358-0.525-0.358-0.924c0-0.488,0.178-0.881,0.535-1.177
		c0.356-0.296,0.831-0.444,1.424-0.444c0.604,0,1.08,0.155,1.428,0.467c0.347,0.311,0.522,0.737,0.527,1.28l-0.71,0.004
		c-0.024-0.367-0.149-0.648-0.374-0.844c-0.224-0.196-0.53-0.294-0.92-0.294c-0.364,0-0.655,0.08-0.873,0.24
		c-0.219,0.159-0.327,0.372-0.327,0.637c0,0.424,0.451,0.74,1.353,0.948c0.134,0.032,0.237,0.058,0.309,0.074l0.078,0.019
		c0.59,0.142,0.981,0.294,1.175,0.458c0.146,0.124,0.258,0.274,0.335,0.451c0.076,0.178,0.115,0.375,0.115,0.593
		c0,0.528-0.189,0.948-0.567,1.261s-0.889,0.468-1.533,0.468c-0.664,0-1.182-0.167-1.552-0.503
		C162.51,185.602,162.312,185.12,162.285,184.493z"/>
	<path d="M167.455,186.296v-5.476h2.016c0.327,0,0.576,0.016,0.747,0.048s0.323,0.086,0.457,0.16
		c0.224,0.121,0.395,0.301,0.514,0.539c0.118,0.237,0.178,0.517,0.178,0.836c0,0.305-0.06,0.574-0.178,0.807
		c-0.119,0.233-0.293,0.419-0.521,0.558c-0.132,0.08-0.286,0.136-0.463,0.17c-0.178,0.033-0.47,0.05-0.876,0.05h-1.13v2.309H167.455
		z M168.199,183.325h1.249c0.434,0,0.736-0.069,0.909-0.208c0.172-0.139,0.258-0.377,0.258-0.714c0-0.324-0.085-0.558-0.256-0.698
		c-0.172-0.142-0.456-0.212-0.855-0.212h-1.305V183.325z"/>
</g>
<g>
	<path d="M208.218,183.438h2.123c0.345,0,0.598,0.015,0.761,0.044c0.162,0.03,0.308,0.079,0.437,0.148
		c0.23,0.127,0.406,0.303,0.526,0.528s0.18,0.491,0.18,0.796c0,0.295-0.063,0.547-0.189,0.756c-0.126,0.21-0.314,0.374-0.565,0.493
		c0.214,0.06,0.365,0.16,0.456,0.301c0.09,0.142,0.146,0.381,0.169,0.718l0.063,0.903c0.012,0.193,0.037,0.338,0.076,0.433
		c0.038,0.096,0.096,0.163,0.173,0.203v0.152h-0.859c-0.069-0.114-0.117-0.358-0.145-0.732v-0.022l-0.045-0.714
		c-0.024-0.366-0.103-0.604-0.234-0.714c-0.131-0.108-0.459-0.163-0.984-0.163h-1.205v2.346h-0.736V183.438z M208.948,184.08v1.855
		h1.271c0.458,0,0.782-0.074,0.972-0.224c0.189-0.148,0.284-0.396,0.284-0.743c0-0.324-0.089-0.554-0.268-0.688
		s-0.508-0.201-0.988-0.201H208.948z"/>
	<path d="M212.832,187.14h0.714c-0.002,0.027-0.004,0.057-0.005,0.088c-0.002,0.03-0.002,0.077-0.002,0.139
		c0,0.362,0.068,0.624,0.204,0.787c0.137,0.162,0.355,0.243,0.658,0.243c0.188,0,0.345-0.033,0.469-0.101
		c0.123-0.066,0.222-0.171,0.293-0.313c0.032-0.066,0.056-0.16,0.069-0.28s0.021-0.323,0.021-0.608v-3.657H216v3.959
		c0,0.564-0.129,0.983-0.387,1.255s-0.657,0.406-1.197,0.406c-0.53,0-0.928-0.14-1.193-0.42c-0.265-0.279-0.397-0.701-0.397-1.264
		c0-0.062,0-0.109,0.002-0.144C212.828,187.197,212.83,187.167,212.832,187.14z"/>
</g>
<g>
	<path d="M191.296,158.313v4.666h-0.685v-5.476h1.063l1.357,4.189c0.039,0.119,0.068,0.211,0.087,0.276
		c0.019,0.066,0.033,0.124,0.043,0.173c0.02-0.091,0.04-0.173,0.06-0.245c0.02-0.071,0.041-0.14,0.063-0.204l1.405-4.189h1.066
		v5.476h-0.721v-4.666c-0.018,0.08-0.037,0.16-0.06,0.24s-0.046,0.16-0.071,0.24l-1.408,4.186h-0.703l-1.375-4.186
		c-0.025-0.07-0.048-0.145-0.067-0.224S191.314,158.405,191.296,158.313z"/>
	<path d="M201.03,162.247c-0.224,0.295-0.488,0.517-0.796,0.664s-0.657,0.221-1.049,0.221c-0.74,0-1.341-0.265-1.801-0.794
		c-0.46-0.528-0.689-1.224-0.689-2.083c0-0.896,0.237-1.601,0.714-2.117c0.476-0.518,1.121-0.775,1.937-0.775
		c0.625,0,1.134,0.158,1.528,0.474c0.394,0.316,0.631,0.757,0.71,1.322h-0.726c-0.066-0.37-0.231-0.654-0.496-0.855
		c-0.264-0.201-0.603-0.301-1.017-0.301c-0.598,0-1.06,0.193-1.389,0.581c-0.328,0.389-0.492,0.936-0.492,1.642
		c0,0.699,0.162,1.245,0.487,1.64c0.324,0.394,0.771,0.591,1.342,0.591c0.516,0,0.927-0.157,1.234-0.472
		c0.307-0.315,0.461-0.738,0.461-1.271v-0.07h-1.714v-0.617h2.401v2.955h-0.487L201.03,162.247z"/>
</g>
<g>
	<path d="M208.218,120.628v-5.476h2.209c0.567,0,0.993,0.111,1.276,0.334c0.284,0.223,0.426,0.557,0.426,1
		c0,0.285-0.065,0.527-0.196,0.727c-0.132,0.199-0.327,0.353-0.588,0.459c0.33,0.062,0.586,0.209,0.77,0.44
		c0.184,0.232,0.275,0.525,0.275,0.88c0,0.5-0.166,0.898-0.498,1.193s-0.783,0.441-1.354,0.441H208.218z M208.962,117.454h1.305
		c0.384,0,0.667-0.069,0.848-0.208c0.181-0.139,0.271-0.356,0.271-0.651c0-0.277-0.087-0.483-0.261-0.617
		c-0.173-0.134-0.439-0.201-0.799-0.201h-1.364V117.454z M208.962,119.967h1.509c0.38,0,0.667-0.084,0.863-0.251
		c0.195-0.168,0.293-0.41,0.293-0.73c0-0.317-0.1-0.55-0.299-0.699c-0.199-0.148-0.514-0.223-0.942-0.223h-1.424V119.967z"/>
	<path d="M212.65,120.628l2.033-5.476h0.822l2.041,5.476h-0.807l-0.58-1.635h-2.156l-0.584,1.635H212.65z M214.234,118.353h1.706
		l-0.848-2.416L214.234,118.353z"/>
</g>
<g>
	<path d="M157.592,149.399c-0.224,0.295-0.488,0.517-0.796,0.664s-0.657,0.221-1.049,0.221c-0.74,0-1.341-0.265-1.801-0.794
		c-0.46-0.528-0.689-1.224-0.689-2.083c0-0.896,0.237-1.601,0.714-2.117c0.476-0.518,1.121-0.775,1.937-0.775
		c0.625,0,1.134,0.158,1.528,0.474c0.394,0.316,0.631,0.757,0.71,1.322h-0.726c-0.066-0.37-0.231-0.654-0.496-0.855
		c-0.264-0.201-0.603-0.301-1.017-0.301c-0.598,0-1.06,0.193-1.389,0.581c-0.328,0.389-0.492,0.936-0.492,1.642
		c0,0.699,0.162,1.245,0.487,1.64c0.324,0.394,0.771,0.591,1.342,0.591c0.516,0,0.927-0.157,1.234-0.472
		c0.307-0.315,0.461-0.738,0.461-1.271v-0.07h-1.714v-0.617h2.401v2.955h-0.487L157.592,149.399z"/>
	<path d="M159.076,147.399c0-0.904,0.229-1.611,0.689-2.121c0.46-0.509,1.096-0.764,1.909-0.764c0.811,0,1.444,0.254,1.901,0.762
		c0.457,0.509,0.686,1.216,0.686,2.123c0,0.904-0.229,1.611-0.686,2.121c-0.457,0.509-1.091,0.764-1.901,0.764
		c-0.813,0-1.449-0.255-1.909-0.764C159.305,149.011,159.076,148.304,159.076,147.399z M159.845,147.399
		c0,0.701,0.161,1.25,0.485,1.646c0.323,0.395,0.771,0.593,1.344,0.593c0.57,0,1.016-0.198,1.336-0.593
		c0.321-0.396,0.481-0.944,0.481-1.646c0-0.704-0.16-1.253-0.481-1.646c-0.32-0.395-0.766-0.592-1.336-0.592
		c-0.572,0-1.021,0.197-1.344,0.592C160.006,146.146,159.845,146.695,159.845,147.399z"/>
</g>
<g>
	<path d="M168.337,136.332v-4.106h1.564c0.572,0,1.011,0.17,1.314,0.512c0.304,0.343,0.456,0.836,0.456,1.481
		c0,0.667-0.157,1.187-0.473,1.557c-0.315,0.371-0.755,0.557-1.32,0.557H168.337z M169.854,132.699h-0.959v3.131h0.959
		c0.411,0,0.722-0.133,0.932-0.4c0.21-0.266,0.315-0.66,0.315-1.183c0-0.5-0.107-0.883-0.321-1.149
		C170.566,132.832,170.257,132.699,169.854,132.699z"/>
	<path d="M172.375,136.332v-4.106h2.758v0.516h-2.2v1.232h1.921v0.502h-1.921v1.856H172.375z"/>
</g>
<g>
	<path d="M220.115,171.148v-5.476h3.904v0.68h-3.168v1.636h2.926v0.64h-2.926v1.837h3.23v0.684H220.115z"/>
	<path d="M224.729,169.346h0.717c0.008,0.396,0.14,0.712,0.396,0.947c0.256,0.236,0.599,0.354,1.027,0.354
		c0.424,0,0.758-0.089,1.002-0.268s0.366-0.421,0.366-0.729c0-0.419-0.458-0.737-1.375-0.956c-0.055-0.012-0.097-0.021-0.127-0.029
		c-0.743-0.176-1.234-0.372-1.474-0.589s-0.358-0.525-0.358-0.924c0-0.488,0.178-0.881,0.535-1.177
		c0.356-0.296,0.831-0.444,1.424-0.444c0.604,0,1.08,0.155,1.428,0.467c0.347,0.311,0.522,0.737,0.527,1.28l-0.71,0.004
		c-0.024-0.367-0.149-0.648-0.374-0.844c-0.224-0.196-0.53-0.294-0.92-0.294c-0.364,0-0.655,0.08-0.873,0.24
		c-0.219,0.159-0.327,0.372-0.327,0.637c0,0.424,0.451,0.74,1.353,0.948c0.134,0.032,0.237,0.058,0.309,0.074l0.078,0.019
		c0.59,0.142,0.981,0.294,1.175,0.458c0.146,0.124,0.258,0.274,0.335,0.451c0.076,0.178,0.115,0.375,0.115,0.593
		c0,0.528-0.189,0.948-0.567,1.261s-0.889,0.468-1.533,0.468c-0.664,0-1.182-0.167-1.552-0.503
		C224.955,170.454,224.756,169.973,224.729,169.346z"/>
</g>
<g>
	<path d="M155.384,218.755h0.717c0.008,0.396,0.14,0.712,0.396,0.947c0.256,0.236,0.599,0.354,1.027,0.354
		c0.424,0,0.758-0.089,1.002-0.268s0.366-0.421,0.366-0.729c0-0.419-0.458-0.737-1.375-0.956c-0.055-0.012-0.097-0.021-0.127-0.029
		c-0.743-0.176-1.234-0.372-1.474-0.589s-0.358-0.525-0.358-0.924c0-0.488,0.178-0.881,0.535-1.177
		c0.356-0.296,0.831-0.444,1.424-0.444c0.604,0,1.08,0.155,1.428,0.467c0.347,0.311,0.522,0.737,0.527,1.28l-0.71,0.004
		c-0.024-0.367-0.149-0.648-0.374-0.844c-0.224-0.196-0.53-0.294-0.92-0.294c-0.364,0-0.655,0.08-0.873,0.24
		c-0.219,0.159-0.327,0.372-0.327,0.637c0,0.424,0.451,0.74,1.353,0.948c0.134,0.032,0.237,0.058,0.309,0.074l0.078,0.019
		c0.59,0.142,0.981,0.294,1.175,0.458c0.146,0.124,0.258,0.274,0.335,0.451c0.076,0.178,0.115,0.375,0.115,0.593
		c0,0.528-0.189,0.948-0.567,1.261s-0.889,0.468-1.533,0.468c-0.664,0-1.182-0.167-1.552-0.503
		C155.61,219.863,155.412,219.382,155.384,218.755z"/>
	<path d="M164.384,218.524h0.721c-0.032,0.666-0.26,1.197-0.683,1.593c-0.422,0.396-0.968,0.593-1.637,0.593
		c-0.771,0-1.375-0.263-1.813-0.788s-0.656-1.253-0.656-2.183c0-0.857,0.229-1.538,0.688-2.042c0.459-0.505,1.077-0.757,1.855-0.757
		c0.619,0,1.127,0.16,1.522,0.479c0.395,0.319,0.624,0.756,0.686,1.309h-0.729c-0.069-0.362-0.234-0.64-0.494-0.835
		c-0.261-0.194-0.599-0.292-1.016-0.292c-0.555,0-0.985,0.195-1.292,0.584c-0.306,0.39-0.459,0.938-0.459,1.647
		c0,0.669,0.159,1.205,0.478,1.609s0.741,0.605,1.267,0.605c0.448,0,0.815-0.139,1.102-0.418
		C164.21,219.352,164.364,218.982,164.384,218.524z"/>
</g>
<g>
	<path d="M132.558,230.071h2.123c0.345,0,0.598,0.015,0.76,0.044c0.163,0.03,0.309,0.079,0.438,0.148
		c0.23,0.127,0.406,0.303,0.525,0.528c0.121,0.226,0.182,0.491,0.182,0.796c0,0.295-0.064,0.547-0.19,0.756
		c-0.126,0.21-0.314,0.374-0.565,0.493c0.213,0.06,0.365,0.16,0.456,0.301c0.091,0.142,0.146,0.381,0.169,0.718l0.063,0.903
		c0.013,0.193,0.038,0.338,0.076,0.433c0.038,0.096,0.096,0.163,0.173,0.203v0.152h-0.859c-0.068-0.114-0.117-0.358-0.145-0.732
		v-0.022l-0.045-0.714c-0.024-0.366-0.103-0.604-0.234-0.714c-0.131-0.108-0.459-0.163-0.984-0.163h-1.205v2.346h-0.736V230.071z
		 M133.286,230.714v1.855h1.271c0.459,0,0.783-0.074,0.973-0.224c0.189-0.148,0.285-0.396,0.285-0.743
		c0-0.324-0.09-0.554-0.269-0.688s-0.508-0.201-0.989-0.201H133.286z"/>
	<path d="M137.361,233.744h0.718c0.008,0.396,0.139,0.712,0.396,0.947c0.257,0.236,0.6,0.354,1.027,0.354
		c0.424,0,0.758-0.089,1.002-0.268s0.367-0.421,0.367-0.729c0-0.419-0.459-0.737-1.375-0.956c-0.055-0.012-0.098-0.021-0.127-0.029
		c-0.744-0.176-1.235-0.372-1.474-0.589c-0.24-0.217-0.359-0.525-0.359-0.924c0-0.488,0.179-0.881,0.535-1.177
		s0.831-0.444,1.425-0.444c0.604,0,1.08,0.155,1.428,0.467c0.346,0.311,0.521,0.737,0.527,1.28l-0.711,0.004
		c-0.023-0.367-0.148-0.648-0.373-0.844c-0.225-0.196-0.531-0.294-0.92-0.294c-0.365,0-0.656,0.08-0.874,0.24
		c-0.218,0.159-0.327,0.372-0.327,0.637c0,0.424,0.451,0.74,1.354,0.948c0.133,0.032,0.236,0.058,0.309,0.074l0.078,0.019
		c0.59,0.142,0.98,0.294,1.174,0.458c0.146,0.124,0.258,0.274,0.336,0.451c0.076,0.178,0.115,0.375,0.115,0.593
		c0,0.528-0.189,0.948-0.568,1.261c-0.377,0.313-0.889,0.468-1.533,0.468c-0.664,0-1.181-0.167-1.552-0.503
		S137.388,234.371,137.361,233.744z"/>
</g>
<g>
	<path d="M24.405,104.449l2.034-5.476h0.822l2.041,5.476h-0.807l-0.58-1.636h-2.156l-0.584,1.636H24.405z M25.989,102.174h1.706
		l-0.848-2.416L25.989,102.174z"/>
	<path d="M33.695,102.416h0.721c-0.032,0.667-0.26,1.198-0.682,1.593c-0.422,0.395-0.968,0.593-1.638,0.593
		c-0.771,0-1.375-0.263-1.813-0.788c-0.437-0.525-0.656-1.253-0.656-2.182c0-0.857,0.229-1.539,0.688-2.043s1.077-0.756,1.855-0.756
		c0.62,0,1.127,0.16,1.522,0.479c0.396,0.32,0.624,0.756,0.686,1.309h-0.729c-0.069-0.362-0.234-0.64-0.495-0.834
		c-0.26-0.195-0.599-0.292-1.015-0.292c-0.556,0-0.986,0.195-1.292,0.583c-0.306,0.389-0.459,0.938-0.459,1.647
		c0,0.669,0.16,1.206,0.478,1.61s0.74,0.606,1.266,0.606c0.449,0,0.816-0.14,1.103-0.418
		C33.522,103.243,33.675,102.874,33.695,102.416z"/>
</g>
<g>
	<path d="M185.824,67.664v4.666h-0.685v-5.476h1.063l1.357,4.19c0.039,0.119,0.068,0.211,0.087,0.277
		c0.019,0.065,0.033,0.123,0.043,0.173c0.02-0.092,0.04-0.173,0.06-0.246c0.02-0.072,0.041-0.14,0.063-0.204l1.405-4.19h1.066v5.476
		h-0.721v-4.666c-0.018,0.079-0.037,0.159-0.06,0.24s-0.046,0.161-0.071,0.24l-1.408,4.186h-0.703l-1.375-4.186
		c-0.025-0.069-0.048-0.144-0.067-0.223C185.86,67.841,185.841,67.755,185.824,67.664z"/>
	<path d="M190.85,72.329l2.033-5.476h0.822l2.041,5.476h-0.807l-0.58-1.636h-2.156l-0.584,1.636H190.85z M192.434,70.054h1.706
		l-0.848-2.416L192.434,70.054z"/>
</g>
<g>
	<path d="M205.838,89.46v-5.476h2.016c0.327,0,0.576,0.016,0.747,0.048s0.323,0.085,0.457,0.16c0.224,0.122,0.395,0.301,0.514,0.539
		c0.118,0.238,0.178,0.517,0.178,0.836c0,0.305-0.06,0.574-0.178,0.807c-0.119,0.233-0.293,0.419-0.521,0.558
		c-0.132,0.079-0.286,0.136-0.463,0.169c-0.178,0.034-0.47,0.05-0.876,0.05h-1.13v2.309H205.838z M206.583,86.49h1.249
		c0.434,0,0.736-0.069,0.909-0.208c0.172-0.139,0.258-0.376,0.258-0.714c0-0.324-0.085-0.558-0.256-0.699
		c-0.172-0.141-0.456-0.212-0.855-0.212h-1.305V86.49z"/>
	<path d="M210.65,89.46v-5.476h0.743v5.476H210.65z"/>
</g>
<g>
	<path d="M228.465,69.582h0.721c-0.032,0.667-0.26,1.198-0.683,1.593c-0.422,0.395-0.968,0.593-1.637,0.593
		c-0.771,0-1.375-0.263-1.813-0.788s-0.656-1.253-0.656-2.182c0-0.857,0.229-1.539,0.688-2.043c0.459-0.504,1.077-0.756,1.855-0.756
		c0.619,0,1.127,0.16,1.522,0.479c0.395,0.32,0.624,0.756,0.686,1.309h-0.729c-0.069-0.362-0.234-0.64-0.494-0.834
		c-0.261-0.195-0.599-0.292-1.016-0.292c-0.555,0-0.985,0.195-1.292,0.583c-0.306,0.389-0.459,0.938-0.459,1.647
		c0,0.669,0.159,1.206,0.478,1.61s0.741,0.606,1.267,0.606c0.448,0,0.815-0.14,1.102-0.418S228.445,70.041,228.465,69.582z"/>
	<path d="M230.063,71.616V66.14h3.904v0.68h-3.168v1.636h2.926v0.64h-2.926v1.836h3.23v0.684H230.063z"/>
</g>
<g>
	<path d="M249.737,69.589h2.123c0.345,0,0.598,0.015,0.761,0.044c0.162,0.03,0.308,0.08,0.437,0.149
		c0.23,0.126,0.406,0.302,0.526,0.528s0.18,0.491,0.18,0.795c0,0.295-0.063,0.547-0.189,0.757c-0.126,0.209-0.314,0.374-0.565,0.493
		c0.214,0.059,0.365,0.16,0.456,0.301c0.09,0.142,0.146,0.381,0.169,0.718l0.063,0.903c0.012,0.193,0.037,0.338,0.076,0.433
		c0.038,0.095,0.096,0.163,0.173,0.203v0.152h-0.859c-0.069-0.114-0.117-0.358-0.145-0.732v-0.022l-0.045-0.713
		c-0.024-0.367-0.103-0.605-0.234-0.714c-0.131-0.109-0.459-0.164-0.984-0.164h-1.205v2.346h-0.736V69.589z M250.466,70.232v1.855
		h1.271c0.458,0,0.782-0.074,0.972-0.223c0.189-0.149,0.284-0.396,0.284-0.744c0-0.325-0.089-0.554-0.268-0.688
		s-0.508-0.201-0.988-0.201H250.466z"/>
	<path d="M254.786,75.065v-5.476h0.814l2.558,3.978c0.057,0.086,0.106,0.168,0.148,0.245c0.042,0.077,0.075,0.149,0.101,0.216
		v-4.439h0.71v5.476h-0.807l-2.613-4.034c-0.04-0.062-0.077-0.126-0.11-0.193s-0.064-0.137-0.095-0.212v4.439H254.786z"/>
</g>
<g>
	<path d="M254.336,84.424v-5.476h2.016c0.327,0,0.576,0.016,0.747,0.048s0.323,0.085,0.457,0.16
		c0.224,0.122,0.395,0.301,0.514,0.539c0.118,0.238,0.178,0.517,0.178,0.836c0,0.305-0.06,0.574-0.178,0.807
		c-0.119,0.233-0.293,0.419-0.521,0.558c-0.132,0.079-0.286,0.136-0.463,0.169c-0.178,0.034-0.47,0.05-0.876,0.05h-1.13v2.309
		H254.336z M255.081,81.454h1.249c0.434,0,0.736-0.069,0.909-0.208c0.172-0.139,0.258-0.376,0.258-0.714
		c0-0.324-0.085-0.558-0.256-0.699c-0.172-0.141-0.456-0.212-0.855-0.212h-1.305V81.454z"/>
	<path d="M259.132,84.424v-5.476h2.209c0.567,0,0.993,0.111,1.276,0.334c0.284,0.223,0.426,0.557,0.426,1
		c0,0.285-0.065,0.527-0.196,0.727c-0.132,0.199-0.327,0.353-0.588,0.459c0.33,0.062,0.586,0.209,0.77,0.44
		c0.184,0.232,0.275,0.525,0.275,0.879c0,0.5-0.166,0.898-0.498,1.193s-0.783,0.442-1.354,0.442H259.132z M259.876,81.25h1.305
		c0.384,0,0.667-0.069,0.848-0.208c0.181-0.139,0.271-0.356,0.271-0.651c0-0.277-0.087-0.483-0.261-0.617
		c-0.173-0.134-0.439-0.201-0.799-0.201h-1.364V81.25z M259.876,83.763h1.509c0.38,0,0.667-0.084,0.863-0.251
		c0.195-0.167,0.293-0.411,0.293-0.73c0-0.317-0.1-0.55-0.299-0.699c-0.199-0.148-0.514-0.223-0.942-0.223h-1.424V83.763z"/>
</g>
<g>
	<path d="M254.098,93.346V87.87h2.016c0.327,0,0.576,0.016,0.747,0.048s0.323,0.085,0.457,0.16c0.224,0.122,0.395,0.301,0.514,0.539
		c0.118,0.238,0.178,0.517,0.178,0.836c0,0.305-0.06,0.574-0.178,0.807c-0.119,0.233-0.293,0.419-0.521,0.558
		c-0.132,0.079-0.286,0.136-0.463,0.169c-0.178,0.034-0.47,0.05-0.876,0.05h-1.13v2.309H254.098z M254.842,90.376h1.249
		c0.434,0,0.736-0.069,0.909-0.208c0.172-0.139,0.258-0.376,0.258-0.714c0-0.324-0.085-0.558-0.256-0.699
		c-0.172-0.141-0.456-0.212-0.855-0.212h-1.305V90.376z"/>
	<path d="M258.894,93.346V87.87h3.904v0.68h-3.168v1.636h2.926v0.64h-2.926v1.836h3.23v0.684H258.894z"/>
</g>
<g>
	<path d="M249.325,102.625l2.033-5.476h0.822l2.041,5.476h-0.807l-0.58-1.636h-2.156l-0.584,1.636H249.325z M250.909,100.35h1.706
		l-0.848-2.416L250.909,100.35z"/>
	<path d="M254.786,102.625v-5.476h0.751v4.785h2.729v0.691H254.786z"/>
</g>
<g>
	<path d="M241.078,109.308h0.717c0.008,0.397,0.14,0.713,0.396,0.948c0.256,0.235,0.599,0.353,1.027,0.353
		c0.424,0,0.758-0.089,1.002-0.268s0.366-0.421,0.366-0.729c0-0.419-0.458-0.737-1.375-0.956c-0.055-0.012-0.097-0.022-0.127-0.03
		c-0.743-0.176-1.234-0.372-1.474-0.589c-0.239-0.217-0.358-0.524-0.358-0.924c0-0.488,0.178-0.88,0.535-1.176
		c0.356-0.296,0.831-0.444,1.424-0.444c0.604,0,1.08,0.155,1.428,0.466c0.347,0.311,0.522,0.738,0.527,1.281l-0.71,0.004
		c-0.024-0.367-0.149-0.648-0.374-0.844c-0.224-0.195-0.53-0.293-0.92-0.293c-0.364,0-0.655,0.08-0.873,0.24
		c-0.219,0.16-0.327,0.373-0.327,0.638c0,0.424,0.451,0.74,1.353,0.948c0.134,0.032,0.237,0.057,0.309,0.075l0.078,0.019
		c0.59,0.141,0.981,0.293,1.175,0.457c0.146,0.124,0.258,0.274,0.335,0.452c0.076,0.177,0.115,0.375,0.115,0.593
		c0,0.528-0.189,0.948-0.567,1.26c-0.378,0.312-0.889,0.468-1.533,0.468c-0.664,0-1.182-0.168-1.552-0.504
		C241.303,110.417,241.105,109.936,241.078,109.308z"/>
	<path d="M246.248,111.111v-5.476h3.904v0.68h-3.168v1.636h2.926v0.64h-2.926v1.836h3.23v0.684H246.248z"/>
</g>
<g>
	<path d="M134.223,69.95v-5.476h2.016c0.326,0,0.576,0.016,0.746,0.048c0.172,0.032,0.324,0.085,0.457,0.16
		c0.224,0.122,0.395,0.301,0.514,0.539c0.119,0.238,0.179,0.517,0.179,0.836c0,0.305-0.06,0.574-0.179,0.807
		s-0.293,0.419-0.521,0.558c-0.132,0.079-0.286,0.136-0.463,0.169c-0.177,0.034-0.469,0.05-0.876,0.05h-1.129v2.309H134.223z
		 M134.967,66.98h1.248c0.434,0,0.737-0.069,0.909-0.208c0.173-0.139,0.259-0.376,0.259-0.714c0-0.324-0.086-0.558-0.257-0.699
		s-0.456-0.212-0.854-0.212h-1.305V66.98z"/>
	<path d="M137.892,69.95l2.033-5.476h0.822l2.041,5.476h-0.807l-0.58-1.636h-2.156l-0.584,1.636H137.892z M139.476,67.675h1.706
		l-0.848-2.416L139.476,67.675z"/>
</g>
<linearGradient id="SVGID_35_" gradientUnits="userSpaceOnUse" x1="169.4829" y1="141.2822" x2="176.4829" y2="141.2822">
	<stop  offset="0" style="stop-color:#FFAB00"/>
	<stop  offset="1" style="stop-color:#D07800"/>
</linearGradient>
<polygon style="fill:url(#SVGID_35_);" points="174.816,142.876 170.792,142.876 169.483,141.999 170.673,140.332 170.792,139.332 
	172.149,139.332 172.983,139.332 174.816,139.332 175.483,139.332 175.483,139.999 176.483,141.104 176.483,141.665 
	176.483,142.876 175.987,143.232 "/>
</svg>
